<svg width="27" height="32" viewBox="0 0 27 32" fill="none" xmlns="http://www.w3.org/2000/svg">
<path d="M7.43909 31.401C6.80818 30.9813 6.24902 30.4626 5.78309 29.865C5.27058 29.2482 4.79572 28.601 4.36109 27.927C3.34117 26.4328 2.54133 24.7998 1.98609 23.078C1.31909 21.078 0.996094 19.161 0.996094 17.286C0.996094 15.192 1.44909 13.364 2.33509 11.828C2.99187 10.6275 3.95751 9.6242 5.13209 8.92202C6.2704 8.215 7.57833 7.82807 8.91809 7.80202C9.38709 7.80202 9.89209 7.87002 10.4281 8.00002C10.8131 8.10902 11.2821 8.28102 11.8551 8.49502C12.5841 8.77602 12.9851 8.94802 13.1211 8.99002C13.5481 9.14602 13.9071 9.21402 14.1891 9.21402C14.4031 9.21402 14.7051 9.14602 15.0481 9.04202C15.2411 8.97402 15.6051 8.85402 16.1261 8.63102C16.6421 8.44302 17.0481 8.28202 17.3711 8.16202C17.8661 8.01602 18.3451 7.88102 18.7721 7.81302C19.2783 7.73322 19.792 7.71208 20.3031 7.75002C21.1887 7.80791 22.061 7.99558 22.8921 8.30702C24.2511 8.85402 25.3501 9.70802 26.1681 10.922C25.8223 11.1351 25.4979 11.3809 25.1991 11.656C24.5487 12.2326 23.9947 12.9095 23.5581 13.661C22.9874 14.6881 22.6915 15.8451 22.6991 17.02C22.7201 18.463 23.0901 19.734 23.8191 20.833C24.355 21.6475 25.0516 22.3441 25.8661 22.88C26.2831 23.161 26.6421 23.354 26.9861 23.484C26.8251 23.984 26.6531 24.468 26.4501 24.948C25.9897 26.0244 25.4317 27.0564 24.7831 28.031C24.2051 28.87 23.7521 29.495 23.4081 29.911C22.8721 30.546 22.3561 31.031 21.8351 31.369C21.2621 31.749 20.5851 31.952 19.8971 31.952C19.4311 31.9699 18.9653 31.9135 18.5171 31.785C18.1321 31.655 17.7511 31.514 17.3761 31.353C16.9862 31.174 16.5842 31.0226 16.1731 30.9C15.1568 30.639 14.0912 30.6373 13.0741 30.895C12.6571 31.015 12.2561 31.155 11.8601 31.327C11.3031 31.561 10.9331 31.718 10.7191 31.785C10.2921 31.91 9.84909 31.988 9.40109 32.014C8.70809 32.014 8.06209 31.816 7.42209 31.415L7.43909 31.401ZM16.5791 6.78602C15.6731 7.23902 14.8081 7.43202 13.9491 7.36902C13.8141 6.50402 13.9491 5.61902 14.3081 4.65002C14.6137 3.82909 15.0653 3.07021 15.6411 2.41002C16.2491 1.71505 16.9869 1.1454 17.8131 0.733023C18.6931 0.280023 19.5321 0.0350234 20.3341 -0.000976562C20.4381 0.905023 20.3341 1.79602 20.0011 2.75902C19.6929 3.61031 19.2422 4.40295 18.6681 5.10302C18.0821 5.79895 17.3631 6.37081 16.5531 6.78502L16.5791 6.78602Z" fill="white"/>
</svg>
