<svg width="30" height="32" viewBox="0 0 30 32" fill="none" xmlns="http://www.w3.org/2000/svg">
<g clip-path="url(#clip0_591_9847)">
<path d="M22.0543 20.8902C25.8453 18.8087 28.7191 17.2226 28.9668 17.0993C29.7592 16.6779 30.5775 15.5626 28.9668 14.6962C28.4467 14.4238 25.6467 12.8871 22.0543 10.9053L17.0742 15.9348L22.0543 20.8901V20.8902Z" fill="#FFD900"/>
<path d="M17.0759 15.9355L1.21875 31.9172C1.59095 31.9665 2.01116 31.8678 2.50657 31.5955C3.54669 31.0261 14.5729 25.0046 22.056 20.8922L17.0759 15.9355Z" fill="#F43249"/>
<path d="M17.0771 15.9351L22.0572 10.9303C22.0572 10.9303 3.62311 0.870058 2.50778 0.276189C2.08758 0.0273132 1.61668 -0.0466138 1.19531 0.0273132L17.0771 15.9351Z" fill="#00EE76"/>
<path d="M17.075 15.9351L1.19316 0.0273438C0.548607 0.176366 0.00390625 0.745826 0.00390625 1.91044V30.0336C0.00390625 31.0996 0.425395 31.8673 1.2178 31.9414L17.075 15.9351Z" fill="#00D3FF"/>
</g>
<defs>
<clipPath id="clip0_591_9847">
<rect width="29.9067" height="32" fill="white"/>
</clipPath>
</defs>
</svg>
