<svg width="25" height="24" viewBox="0 0 25 24" fill="none" xmlns="http://www.w3.org/2000/svg">
<path d="M11.0547 12H21.2306" stroke="black" stroke-width="2" stroke-linecap="round" stroke-linejoin="round"/>
<path d="M4.64844 12H7.28663" stroke="black" stroke-width="2" stroke-linecap="round" stroke-linejoin="round"/>
<path d="M11.054 12C11.054 10.9645 10.2103 10.125 9.16958 10.125C8.12884 10.125 7.28516 10.9645 7.28516 12C7.28516 13.0355 8.12884 13.875 9.16958 13.875C10.2103 13.875 11.054 13.0355 11.054 12Z" stroke="black" stroke-width="2" stroke-linecap="round" stroke-linejoin="round"/>
<path d="M18.5938 5.25H21.2319" stroke="black" stroke-width="2" stroke-linecap="round" stroke-linejoin="round"/>
<path d="M4.64844 5.25L14.8243 5.25" stroke="black" stroke-width="2" stroke-linecap="round" stroke-linejoin="round"/>
<path d="M18.5931 5.25C18.5931 4.21447 17.7494 3.375 16.7086 3.375C15.6679 3.375 14.8242 4.21447 14.8242 5.25C14.8242 6.28553 15.6679 7.125 16.7086 7.125C17.7494 7.125 18.5931 6.28553 18.5931 5.25Z" stroke="black" stroke-width="2" stroke-linecap="round" stroke-linejoin="round"/>
<path d="M15.5781 18.75H21.2314" stroke="black" stroke-width="2" stroke-linecap="round" stroke-linejoin="round"/>
<path d="M4.64844 18.75H11.8092" stroke="black" stroke-width="2" stroke-linecap="round" stroke-linejoin="round"/>
<path d="M15.5774 18.75C15.5774 17.7145 14.7338 16.875 13.693 16.875C12.6523 16.875 11.8086 17.7145 11.8086 18.75C11.8086 19.7855 12.6523 20.625 13.693 20.625C14.7338 20.625 15.5774 19.7855 15.5774 18.75Z" stroke="black" stroke-width="2" stroke-linecap="round" stroke-linejoin="round"/>
</svg>
