<svg width="46" height="46" viewBox="0 0 46 46" fill="none" xmlns="http://www.w3.org/2000/svg">
<path d="M25.9557 19.799C25.9557 19.5228 25.7318 19.299 25.4557 19.299L20.9557 19.299C20.6795 19.299 20.4557 19.5228 20.4557 19.799C20.4557 20.0751 20.6795 20.299 20.9557 20.299L24.9557 20.299L24.9557 24.299C24.9557 24.5751 25.1795 24.799 25.4557 24.799C25.7318 24.799 25.9557 24.5751 25.9557 24.299L25.9557 19.799ZM20.1524 25.8094L25.8092 20.1525L25.1021 19.4454L19.4453 25.1023L20.1524 25.8094Z" fill="#2B2A30"/>
<rect x="1.41421" y="22.6274" width="30" height="30" rx="15" transform="rotate(-45 1.41421 22.6274)" stroke="#82808F" stroke-width="2"/>
</svg>
