<svg width="29" height="28" viewBox="0 0 29 28" fill="none" xmlns="http://www.w3.org/2000/svg">
<path fill-rule="evenodd" clip-rule="evenodd" d="M15.668 14.4453L17.3321 15.5547L14.3685 20H19.4557L13.9773 27.5855L12.356 26.4145L15.5442 22H10.6315L15.668 14.4453Z" fill="white"/>
<path fill-rule="evenodd" clip-rule="evenodd" d="M26.4785 11.2109C27.7237 10.0268 28.5 8.35404 28.5 6.5C28.5 2.91015 25.5898 0 22 0C19.7543 0 17.7746 1.13882 16.6069 2.87046C17.1177 3.3536 17.5801 3.8875 17.9858 4.46406C18.7289 3.00184 20.2474 2 22 2C24.4853 2 26.5 4.01472 26.5 6.5C26.5 7.60602 26.101 8.61885 25.439 9.40238C25.8766 9.9406 26.2298 10.5502 26.4785 11.2109Z" fill="white"/>
<path fill-rule="evenodd" clip-rule="evenodd" d="M8.5 21.665C3.90237 20.4598 0.5 16.1419 0.5 11C0.5 4.92487 5.24949 0 11.1083 0C15.969 0 20.0661 3.38976 21.321 8.01387C21.4626 8.00467 21.6054 8.00001 21.7493 8.00001C25.4776 8.00001 28.5 11.134 28.5 15C28.5 18.866 25.4776 22 21.7493 22C21.6658 22 21.5827 21.9984 21.5 21.9953V20H21.8029V19.9996C24.3359 19.9695 26.5 17.8105 26.5 15C26.5 12.1696 24.3053 10 21.7493 10C21.0272 10 20.3339 10.1732 19.7108 10.4855C19.6791 9.90367 19.5937 9.33674 19.4599 8.78992L19.4569 8.79115C18.5091 4.85004 15.0839 2 11.1083 2C6.42179 2 2.5 5.96046 2.5 11C2.5 15.0657 5.05261 18.4291 8.5 19.5772V21.665Z" fill="white"/>
</svg>
