<svg width="156" height="60" viewBox="0 0 156 60" fill="none" xmlns="http://www.w3.org/2000/svg">
<rect width="156" height="60" rx="8" fill="#272A2E"/>
<g clip-path="url(#clip0_1984_4714)">
<path d="M25.4381 45.401C24.8072 44.9813 24.248 44.4626 23.7821 43.865C23.2696 43.2482 22.7947 42.601 22.3601 41.927C21.3402 40.4328 20.5404 38.7998 19.9851 37.078C19.3181 35.078 18.9951 33.161 18.9951 31.286C18.9951 29.192 19.4481 27.364 20.3341 25.828C20.9909 24.6275 21.9565 23.6242 23.1311 22.922C24.2694 22.215 25.5774 21.8281 26.9171 21.802C27.3861 21.802 27.8911 21.87 28.4271 22C28.8121 22.109 29.2811 22.281 29.8541 22.495C30.5831 22.776 30.9841 22.948 31.1201 22.99C31.5471 23.146 31.9061 23.214 32.1881 23.214C32.4021 23.214 32.7041 23.146 33.0471 23.042C33.2401 22.974 33.6041 22.854 34.1251 22.631C34.6411 22.443 35.0471 22.282 35.3701 22.162C35.8651 22.016 36.3441 21.881 36.7711 21.813C37.2773 21.7332 37.7911 21.7121 38.3021 21.75C39.1877 21.8079 40.06 21.9956 40.8911 22.307C42.2501 22.854 43.3491 23.708 44.1671 24.922C43.8214 25.1351 43.4969 25.3809 43.1981 25.656C42.5477 26.2326 41.9937 26.9095 41.5571 27.661C40.9864 28.6881 40.6905 29.8451 40.6981 31.02C40.7191 32.463 41.0891 33.734 41.8181 34.833C42.3541 35.6475 43.0506 36.3441 43.8651 36.88C44.2821 37.161 44.6411 37.354 44.9851 37.484C44.8241 37.984 44.6521 38.468 44.4491 38.948C43.9887 40.0244 43.4307 41.0564 42.7821 42.031C42.2041 42.87 41.7511 43.495 41.4071 43.911C40.8711 44.546 40.3551 45.031 39.8341 45.369C39.2611 45.749 38.5841 45.952 37.8961 45.952C37.4302 45.9699 36.9643 45.9135 36.5161 45.785C36.1311 45.655 35.7501 45.514 35.3751 45.353C34.9853 45.174 34.5833 45.0226 34.1721 44.9C33.1558 44.639 32.0903 44.6373 31.0731 44.895C30.6561 45.015 30.2551 45.155 29.8591 45.327C29.3021 45.561 28.9321 45.718 28.7181 45.785C28.2911 45.91 27.8481 45.988 27.4001 46.014C26.7071 46.014 26.0611 45.816 25.4211 45.415L25.4381 45.401ZM34.5781 20.786C33.6721 21.239 32.8071 21.432 31.9481 21.369C31.8131 20.504 31.9481 19.619 32.3071 18.65C32.6128 17.8291 33.0644 17.0702 33.6401 16.41C34.2481 15.715 34.9859 15.1454 35.8121 14.733C36.6921 14.28 37.5311 14.035 38.3331 13.999C38.4371 14.905 38.3331 15.796 38.0001 16.759C37.6919 17.6103 37.2412 18.403 36.6671 19.103C36.0812 19.799 35.3621 20.3708 34.5521 20.785L34.5781 20.786Z" fill="white"/>
</g>
<path d="M61.728 24V22.968H64.044C64.66 22.968 65.2 22.836 65.664 22.572C66.128 22.3 66.488 21.928 66.744 21.456C67.008 20.984 67.14 20.44 67.14 19.824C67.14 19.216 67.008 18.676 66.744 18.204C66.48 17.732 66.116 17.364 65.652 17.1C65.188 16.836 64.652 16.704 64.044 16.704H61.74V15.672H64.068C64.676 15.672 65.236 15.776 65.748 15.984C66.268 16.192 66.716 16.484 67.092 16.86C67.476 17.236 67.772 17.676 67.98 18.18C68.196 18.684 68.304 19.236 68.304 19.836C68.304 20.428 68.196 20.98 67.98 21.492C67.772 21.996 67.48 22.436 67.104 22.812C66.728 23.188 66.28 23.48 65.76 23.688C65.248 23.896 64.692 24 64.092 24H61.728ZM60.984 24V15.672H62.112V24H60.984ZM72.2788 24.12C71.7188 24.12 71.2148 23.988 70.7668 23.724C70.3188 23.46 69.9628 23.104 69.6988 22.656C69.4348 22.2 69.3028 21.692 69.3028 21.132C69.3028 20.58 69.4348 20.084 69.6988 19.644C69.9628 19.196 70.3188 18.84 70.7668 18.576C71.2148 18.312 71.7188 18.18 72.2788 18.18C72.8308 18.18 73.3308 18.312 73.7788 18.576C74.2348 18.832 74.5948 19.184 74.8588 19.632C75.1228 20.08 75.2548 20.58 75.2548 21.132C75.2548 21.692 75.1228 22.2 74.8588 22.656C74.5948 23.104 74.2348 23.46 73.7788 23.724C73.3308 23.988 72.8308 24.12 72.2788 24.12ZM72.2788 23.076C72.6388 23.076 72.9588 22.992 73.2388 22.824C73.5188 22.656 73.7388 22.428 73.8988 22.14C74.0588 21.844 74.1388 21.508 74.1388 21.132C74.1388 20.764 74.0548 20.436 73.8868 20.148C73.7268 19.86 73.5068 19.636 73.2268 19.476C72.9548 19.308 72.6388 19.224 72.2788 19.224C71.9188 19.224 71.5988 19.308 71.3188 19.476C71.0388 19.636 70.8188 19.86 70.6588 20.148C70.4988 20.436 70.4188 20.764 70.4188 21.132C70.4188 21.508 70.4988 21.844 70.6588 22.14C70.8188 22.428 71.0388 22.656 71.3188 22.824C71.5988 22.992 71.9188 23.076 72.2788 23.076ZM77.9396 24L75.6836 18.3H76.8116L78.4436 22.74H78.0836L79.7036 18.3H80.3276L81.9476 22.74H81.5876L83.2196 18.3H84.3476L82.1036 24H81.4676L79.8236 19.692H80.2196L78.5636 24H77.9396ZM89.3396 24V20.676C89.3396 20.244 89.2036 19.888 88.9316 19.608C88.6596 19.328 88.3076 19.188 87.8756 19.188C87.5876 19.188 87.3316 19.252 87.1076 19.38C86.8836 19.508 86.7076 19.684 86.5796 19.908C86.4516 20.132 86.3876 20.388 86.3876 20.676L85.9436 20.424C85.9436 19.992 86.0396 19.608 86.2316 19.272C86.4236 18.936 86.6916 18.672 87.0356 18.48C87.3796 18.28 87.7676 18.18 88.1996 18.18C88.6316 18.18 89.0116 18.288 89.3396 18.504C89.6756 18.72 89.9396 19.004 90.1316 19.356C90.3236 19.7 90.4196 20.068 90.4196 20.46V24H89.3396ZM85.3076 24V18.3H86.3876V24H85.3076ZM91.8818 24V15.432H92.9618V24H91.8818ZM97.146 24.12C96.586 24.12 96.082 23.988 95.634 23.724C95.186 23.46 94.83 23.104 94.566 22.656C94.302 22.2 94.17 21.692 94.17 21.132C94.17 20.58 94.302 20.084 94.566 19.644C94.83 19.196 95.186 18.84 95.634 18.576C96.082 18.312 96.586 18.18 97.146 18.18C97.698 18.18 98.198 18.312 98.646 18.576C99.102 18.832 99.462 19.184 99.726 19.632C99.99 20.08 100.122 20.58 100.122 21.132C100.122 21.692 99.99 22.2 99.726 22.656C99.462 23.104 99.102 23.46 98.646 23.724C98.198 23.988 97.698 24.12 97.146 24.12ZM97.146 23.076C97.506 23.076 97.826 22.992 98.106 22.824C98.386 22.656 98.606 22.428 98.766 22.14C98.926 21.844 99.006 21.508 99.006 21.132C99.006 20.764 98.922 20.436 98.754 20.148C98.594 19.86 98.374 19.636 98.094 19.476C97.822 19.308 97.506 19.224 97.146 19.224C96.786 19.224 96.466 19.308 96.186 19.476C95.906 19.636 95.686 19.86 95.526 20.148C95.366 20.436 95.286 20.764 95.286 21.132C95.286 21.508 95.366 21.844 95.526 22.14C95.686 22.428 95.906 22.656 96.186 22.824C96.466 22.992 96.786 23.076 97.146 23.076ZM103.763 24.12C103.243 24.12 102.771 23.992 102.347 23.736C101.923 23.472 101.587 23.116 101.339 22.668C101.099 22.22 100.979 21.716 100.979 21.156C100.979 20.596 101.099 20.092 101.339 19.644C101.587 19.196 101.919 18.84 102.335 18.576C102.759 18.312 103.235 18.18 103.763 18.18C104.195 18.18 104.579 18.272 104.915 18.456C105.259 18.632 105.535 18.88 105.743 19.2C105.951 19.512 106.067 19.876 106.091 20.292V22.008C106.067 22.416 105.951 22.78 105.743 23.1C105.543 23.42 105.271 23.672 104.927 23.856C104.591 24.032 104.203 24.12 103.763 24.12ZM103.943 23.1C104.479 23.1 104.911 22.92 105.239 22.56C105.567 22.192 105.731 21.724 105.731 21.156C105.731 20.764 105.655 20.424 105.503 20.136C105.359 19.84 105.151 19.612 104.879 19.452C104.607 19.284 104.291 19.2 103.931 19.2C103.571 19.2 103.251 19.284 102.971 19.452C102.699 19.62 102.483 19.852 102.323 20.148C102.171 20.436 102.095 20.768 102.095 21.144C102.095 21.528 102.171 21.868 102.323 22.164C102.483 22.452 102.703 22.68 102.983 22.848C103.263 23.016 103.583 23.1 103.943 23.1ZM105.659 24V22.464L105.863 21.072L105.659 19.692V18.3H106.751V24H105.659ZM110.735 24.12C110.207 24.12 109.735 23.992 109.319 23.736C108.903 23.472 108.571 23.116 108.323 22.668C108.083 22.22 107.963 21.716 107.963 21.156C107.963 20.596 108.083 20.092 108.323 19.644C108.571 19.196 108.903 18.84 109.319 18.576C109.735 18.312 110.207 18.18 110.735 18.18C111.159 18.18 111.543 18.272 111.887 18.456C112.231 18.632 112.507 18.88 112.715 19.2C112.931 19.512 113.051 19.876 113.075 20.292V22.008C113.051 22.416 112.935 22.78 112.727 23.1C112.519 23.42 112.243 23.672 111.899 23.856C111.555 24.032 111.167 24.12 110.735 24.12ZM110.915 23.1C111.275 23.1 111.587 23.016 111.851 22.848C112.123 22.68 112.335 22.452 112.487 22.164C112.639 21.868 112.715 21.532 112.715 21.156C112.715 20.764 112.635 20.424 112.475 20.136C112.323 19.848 112.111 19.62 111.839 19.452C111.575 19.284 111.263 19.2 110.903 19.2C110.543 19.2 110.227 19.284 109.955 19.452C109.683 19.62 109.467 19.852 109.307 20.148C109.155 20.436 109.079 20.768 109.079 21.144C109.079 21.528 109.155 21.868 109.307 22.164C109.467 22.452 109.683 22.68 109.955 22.848C110.235 23.016 110.555 23.1 110.915 23.1ZM113.735 24H112.643V22.464L112.847 21.072L112.643 19.692V15.432H113.735V24ZM117.816 24V18.3H118.896V24H117.816ZM118.356 17.16C118.156 17.16 117.992 17.096 117.864 16.968C117.736 16.832 117.672 16.664 117.672 16.464C117.672 16.272 117.736 16.112 117.864 15.984C117.992 15.848 118.156 15.78 118.356 15.78C118.556 15.78 118.72 15.848 118.848 15.984C118.976 16.112 119.04 16.272 119.04 16.464C119.04 16.664 118.976 16.832 118.848 16.968C118.72 17.096 118.556 17.16 118.356 17.16ZM121.363 24V15.912H122.443V24H121.363ZM119.959 19.284V18.3H123.847V19.284H119.959ZM130.005 24.12C129.445 24.12 128.941 23.988 128.493 23.724C128.045 23.46 127.689 23.104 127.425 22.656C127.161 22.2 127.029 21.692 127.029 21.132C127.029 20.58 127.161 20.084 127.425 19.644C127.689 19.196 128.045 18.84 128.493 18.576C128.941 18.312 129.445 18.18 130.005 18.18C130.557 18.18 131.057 18.312 131.505 18.576C131.961 18.832 132.321 19.184 132.585 19.632C132.849 20.08 132.981 20.58 132.981 21.132C132.981 21.692 132.849 22.2 132.585 22.656C132.321 23.104 131.961 23.46 131.505 23.724C131.057 23.988 130.557 24.12 130.005 24.12ZM130.005 23.076C130.365 23.076 130.685 22.992 130.965 22.824C131.245 22.656 131.465 22.428 131.625 22.14C131.785 21.844 131.865 21.508 131.865 21.132C131.865 20.764 131.781 20.436 131.613 20.148C131.453 19.86 131.233 19.636 130.953 19.476C130.681 19.308 130.365 19.224 130.005 19.224C129.645 19.224 129.325 19.308 129.045 19.476C128.765 19.636 128.545 19.86 128.385 20.148C128.225 20.436 128.145 20.764 128.145 21.132C128.145 21.508 128.225 21.844 128.385 22.14C128.545 22.428 128.765 22.656 129.045 22.824C129.325 22.992 129.645 23.076 130.005 23.076ZM138.23 24V20.676C138.23 20.244 138.094 19.888 137.822 19.608C137.55 19.328 137.198 19.188 136.766 19.188C136.478 19.188 136.222 19.252 135.998 19.38C135.774 19.508 135.598 19.684 135.47 19.908C135.342 20.132 135.278 20.388 135.278 20.676L134.834 20.424C134.834 19.992 134.93 19.608 135.122 19.272C135.314 18.936 135.582 18.672 135.926 18.48C136.27 18.28 136.658 18.18 137.09 18.18C137.522 18.18 137.902 18.288 138.23 18.504C138.566 18.72 138.83 19.004 139.022 19.356C139.214 19.7 139.31 20.068 139.31 20.46V24H138.23ZM134.198 24V18.3H135.278V24H134.198Z" fill="white"/>
<path d="M60.36 47L65.454 34.346H67.452L72.528 47H69.918L65.994 36.614H66.894L62.916 47H60.36ZM63.06 44.642V42.59H69.864V44.642H63.06ZM78.7352 47.18C78.1112 47.18 77.5472 47.054 77.0432 46.802C76.5392 46.538 76.1372 46.184 75.8372 45.74C75.5372 45.296 75.3752 44.786 75.3512 44.21V41.132C75.3752 40.556 75.5372 40.046 75.8372 39.602C76.1492 39.146 76.5512 38.786 77.0432 38.522C77.5472 38.258 78.1112 38.126 78.7352 38.126C79.5392 38.126 80.2592 38.324 80.8952 38.72C81.5312 39.116 82.0292 39.656 82.3892 40.34C82.7612 41.024 82.9472 41.798 82.9472 42.662C82.9472 43.514 82.7612 44.282 82.3892 44.966C82.0292 45.65 81.5312 46.19 80.8952 46.586C80.2592 46.982 79.5392 47.18 78.7352 47.18ZM78.3212 45.002C78.7532 45.002 79.1372 44.906 79.4732 44.714C79.8092 44.51 80.0672 44.234 80.2472 43.886C80.4392 43.526 80.5352 43.112 80.5352 42.644C80.5352 42.188 80.4392 41.786 80.2472 41.438C80.0672 41.078 79.8092 40.802 79.4732 40.61C79.1372 40.406 78.7532 40.304 78.3212 40.304C77.9012 40.304 77.5232 40.406 77.1872 40.61C76.8512 40.802 76.5872 41.078 76.3952 41.438C76.2152 41.786 76.1252 42.188 76.1252 42.644C76.1252 43.112 76.2152 43.526 76.3952 43.886C76.5872 44.234 76.8452 44.51 77.1692 44.714C77.5052 44.906 77.8892 45.002 78.3212 45.002ZM73.9112 50.636V38.306H76.2692V40.592L75.8732 42.698L76.2512 44.804V50.636H73.9112ZM89.3172 47.18C88.6932 47.18 88.1292 47.054 87.6252 46.802C87.1212 46.538 86.7192 46.184 86.4192 45.74C86.1192 45.296 85.9572 44.786 85.9332 44.21V41.132C85.9572 40.556 86.1192 40.046 86.4192 39.602C86.7312 39.146 87.1332 38.786 87.6252 38.522C88.1292 38.258 88.6932 38.126 89.3172 38.126C90.1212 38.126 90.8412 38.324 91.4772 38.72C92.1132 39.116 92.6112 39.656 92.9712 40.34C93.3432 41.024 93.5292 41.798 93.5292 42.662C93.5292 43.514 93.3432 44.282 92.9712 44.966C92.6112 45.65 92.1132 46.19 91.4772 46.586C90.8412 46.982 90.1212 47.18 89.3172 47.18ZM88.9032 45.002C89.3352 45.002 89.7192 44.906 90.0552 44.714C90.3912 44.51 90.6492 44.234 90.8292 43.886C91.0212 43.526 91.1172 43.112 91.1172 42.644C91.1172 42.188 91.0212 41.786 90.8292 41.438C90.6492 41.078 90.3912 40.802 90.0552 40.61C89.7192 40.406 89.3352 40.304 88.9032 40.304C88.4832 40.304 88.1052 40.406 87.7692 40.61C87.4332 40.802 87.1692 41.078 86.9772 41.438C86.7972 41.786 86.7072 42.188 86.7072 42.644C86.7072 43.112 86.7972 43.526 86.9772 43.886C87.1692 44.234 87.4272 44.51 87.7512 44.714C88.0872 44.906 88.4712 45.002 88.9032 45.002ZM84.4932 50.636V38.306H86.8512V40.592L86.4552 42.698L86.8332 44.804V50.636H84.4932ZM101.579 47.198C101.087 47.198 100.601 47.132 100.121 47C99.6529 46.868 99.2209 46.688 98.8249 46.46C98.4289 46.22 98.0869 45.932 97.7989 45.596L99.2029 44.174C99.5029 44.51 99.8509 44.762 100.247 44.93C100.643 45.098 101.081 45.182 101.561 45.182C101.945 45.182 102.233 45.128 102.425 45.02C102.629 44.912 102.731 44.75 102.731 44.534C102.731 44.294 102.623 44.108 102.407 43.976C102.203 43.844 101.933 43.736 101.597 43.652C101.261 43.556 100.907 43.454 100.535 43.346C100.175 43.226 99.8269 43.076 99.4909 42.896C99.1549 42.704 98.8789 42.446 98.6629 42.122C98.4589 41.786 98.3569 41.354 98.3569 40.826C98.3569 40.274 98.4889 39.794 98.7529 39.386C99.0289 38.978 99.4189 38.66 99.9229 38.432C100.427 38.204 101.021 38.09 101.705 38.09C102.425 38.09 103.073 38.216 103.649 38.468C104.237 38.72 104.723 39.098 105.107 39.602L103.685 41.024C103.421 40.7 103.121 40.466 102.785 40.322C102.461 40.178 102.107 40.106 101.723 40.106C101.375 40.106 101.105 40.16 100.913 40.268C100.733 40.376 100.643 40.526 100.643 40.718C100.643 40.934 100.745 41.102 100.949 41.222C101.165 41.342 101.441 41.45 101.777 41.546C102.113 41.63 102.461 41.732 102.821 41.852C103.193 41.96 103.541 42.116 103.865 42.32C104.201 42.524 104.471 42.794 104.675 43.13C104.891 43.466 104.999 43.898 104.999 44.426C104.999 45.278 104.693 45.956 104.081 46.46C103.469 46.952 102.635 47.198 101.579 47.198ZM107.867 47V34.688H110.225V47H107.867ZM105.833 40.376V38.306H112.259V40.376H105.833ZM117.46 47.18C116.584 47.18 115.792 46.982 115.084 46.586C114.388 46.178 113.83 45.632 113.41 44.948C113.002 44.252 112.798 43.478 112.798 42.626C112.798 41.774 113.002 41.012 113.41 40.34C113.818 39.656 114.376 39.116 115.084 38.72C115.792 38.312 116.578 38.108 117.442 38.108C118.33 38.108 119.122 38.312 119.818 38.72C120.526 39.116 121.084 39.656 121.492 40.34C121.9 41.012 122.104 41.774 122.104 42.626C122.104 43.478 121.9 44.252 121.492 44.948C121.084 45.632 120.526 46.178 119.818 46.586C119.122 46.982 118.336 47.18 117.46 47.18ZM117.442 44.984C117.886 44.984 118.276 44.888 118.612 44.696C118.96 44.492 119.224 44.216 119.404 43.868C119.596 43.508 119.692 43.1 119.692 42.644C119.692 42.188 119.596 41.786 119.404 41.438C119.212 41.09 118.948 40.82 118.612 40.628C118.276 40.424 117.886 40.322 117.442 40.322C117.01 40.322 116.626 40.424 116.29 40.628C115.954 40.82 115.69 41.09 115.498 41.438C115.306 41.786 115.21 42.188 115.21 42.644C115.21 43.1 115.306 43.508 115.498 43.868C115.69 44.216 115.954 44.492 116.29 44.696C116.626 44.888 117.01 44.984 117.442 44.984ZM123.622 47V38.306H125.98V47H123.622ZM125.98 42.194L125.062 41.582C125.17 40.514 125.482 39.674 125.998 39.062C126.514 38.438 127.258 38.126 128.23 38.126C128.65 38.126 129.028 38.198 129.364 38.342C129.7 38.474 130.006 38.696 130.282 39.008L128.806 40.7C128.674 40.556 128.512 40.448 128.32 40.376C128.14 40.304 127.93 40.268 127.69 40.268C127.186 40.268 126.772 40.43 126.448 40.754C126.136 41.066 125.98 41.546 125.98 42.194ZM135.022 47.18C134.11 47.18 133.3 46.988 132.592 46.604C131.884 46.208 131.32 45.668 130.9 44.984C130.492 44.3 130.288 43.52 130.288 42.644C130.288 41.78 130.486 41.012 130.882 40.34C131.29 39.656 131.842 39.116 132.538 38.72C133.234 38.312 134.008 38.108 134.86 38.108C135.7 38.108 136.438 38.3 137.074 38.684C137.722 39.056 138.226 39.572 138.586 40.232C138.958 40.88 139.144 41.618 139.144 42.446C139.144 42.602 139.132 42.764 139.108 42.932C139.096 43.088 139.066 43.268 139.018 43.472L131.71 43.49V41.726L137.92 41.708L136.966 42.446C136.942 41.93 136.846 41.498 136.678 41.15C136.522 40.802 136.288 40.538 135.976 40.358C135.676 40.166 135.304 40.07 134.86 40.07C134.392 40.07 133.984 40.178 133.636 40.394C133.288 40.598 133.018 40.892 132.826 41.276C132.646 41.648 132.556 42.092 132.556 42.608C132.556 43.136 132.652 43.598 132.844 43.994C133.048 44.378 133.336 44.678 133.708 44.894C134.08 45.098 134.512 45.2 135.004 45.2C135.448 45.2 135.85 45.128 136.21 44.984C136.57 44.828 136.882 44.6 137.146 44.3L138.532 45.686C138.112 46.178 137.596 46.55 136.984 46.802C136.384 47.054 135.73 47.18 135.022 47.18Z" fill="white"/>
<defs>
<clipPath id="clip0_1984_4714">
<rect width="32" height="32" fill="white" transform="translate(16 14)"/>
</clipPath>
</defs>
</svg>
