<svg width="32" height="32" viewBox="0 0 32 32" fill="none" xmlns="http://www.w3.org/2000/svg">
<path d="M26.6666 8.00002C27.44 8.00002 28.0666 8.26669 28.56 8.78669C29.0666 9.33335 29.3333 9.93335 29.3333 10.6667V25.3334C29.3333 26.0667 29.0666 26.6667 28.56 27.2134C28.0666 27.7334 27.44 28 26.6666 28H5.33329C4.55996 28 3.93329 27.7334 3.43996 27.2134C2.93329 26.6667 2.66663 26.0667 2.66663 25.3334V10.6667C2.66663 9.93335 2.93329 9.33335 3.43996 8.78669C3.93329 8.26669 4.55996 8.00002 5.33329 8.00002H10.6666V5.33335C10.6666 4.56002 10.9333 3.93335 11.44 3.44002C11.9333 2.93335 12.56 2.66669 13.3333 2.66669H18.6666C19.44 2.66669 20.0666 2.93335 20.56 3.44002C21.0666 3.93335 21.3333 4.56002 21.3333 5.33335V8.00002H26.6666ZM5.33329 10.6667V25.3334H26.6666V10.6667H5.33329ZM18.6666 8.00002V5.33335H13.3333V8.00002H18.6666ZM13.9466 23.3334L22.7333 14.5467L20.8533 12.6667L13.9466 19.56L11.16 16.7867L9.27996 18.6667L13.9466 23.3334Z" fill="#82808F"/>
</svg>
