<svg width="32" height="32" viewBox="0 0 32 32" fill="none" xmlns="http://www.w3.org/2000/svg">
<g clip-path="url(#clip0_1248_34372)">
<path d="M29.3333 13.3333L28.5 11.5L26.6667 10.6667L28.5 9.83333L29.3333 8L30.1667 9.83333L32 10.6667L30.1667 11.5L29.3333 13.3333ZM25.3333 8L24.0667 5.26667L21.3333 4L24.0667 2.73333L25.3333 0L26.6 2.73333L29.3333 4L26.6 5.26667L25.3333 8ZM12 29.3333C11.2667 29.3333 10.6391 29.0724 10.1173 28.5507C9.59467 28.028 9.33333 27.4 9.33333 26.6667H14.6667C14.6667 27.4 14.4058 28.028 13.884 28.5507C13.3613 29.0724 12.7333 29.3333 12 29.3333ZM6.66667 25.3333V22.6667H17.3333V25.3333H6.66667ZM7 21.3333C5.46667 20.4222 4.25022 19.2 3.35067 17.6667C2.45022 16.1333 2 14.4667 2 12.6667C2 9.88889 2.97244 7.528 4.91733 5.584C6.86133 3.63911 9.22222 2.66667 12 2.66667C14.7778 2.66667 17.1387 3.63911 19.0827 5.584C21.0276 7.528 22 9.88889 22 12.6667C22 14.4667 21.5502 16.1333 20.6507 17.6667C19.7502 19.2 18.5333 20.4222 17 21.3333H7ZM7.8 18.6667H16.2C17.2 17.9556 17.972 17.0778 18.516 16.0333C19.0609 14.9889 19.3333 13.8667 19.3333 12.6667C19.3333 10.6222 18.6222 8.88889 17.2 7.46667C15.7778 6.04444 14.0444 5.33333 12 5.33333C9.95556 5.33333 8.22222 6.04444 6.8 7.46667C5.37778 8.88889 4.66667 10.6222 4.66667 12.6667C4.66667 13.8667 4.93911 14.9889 5.484 16.0333C6.028 17.0778 6.8 17.9556 7.8 18.6667Z" fill="#82808F"/>
</g>
<defs>
<clipPath id="clip0_1248_34372">
<rect width="32" height="32" fill="white"/>
</clipPath>
</defs>
</svg>
