<svg width="481" height="28" viewBox="0 0 481 28" fill="none" xmlns="http://www.w3.org/2000/svg">
<path d="M11.99 2C6.47 2 2 6.48 2 12C2 17.52 6.47 22 11.99 22C17.52 22 22 17.52 22 12C22 6.48 17.52 2 11.99 2ZM18.92 8H15.97C15.657 6.76146 15.1936 5.5659 14.59 4.44C16.4141 5.068 17.9512 6.33172 18.92 8ZM12 4.04C12.83 5.24 13.48 6.57 13.91 8H10.09C10.52 6.57 11.17 5.24 12 4.04ZM4.26 14C4.1 13.36 4 12.69 4 12C4 11.31 4.1 10.64 4.26 10H7.64C7.56 10.66 7.5 11.32 7.5 12C7.5 12.68 7.56 13.34 7.64 14H4.26ZM5.08 16H8.03C8.35 17.25 8.81 18.45 9.41 19.56C7.58397 18.9354 6.04583 17.6708 5.08 16V16ZM8.03 8H5.08C6.04583 6.32918 7.58397 5.06457 9.41 4.44C8.80643 5.5659 8.34298 6.76146 8.03 8V8ZM12 19.96C11.17 18.76 10.52 17.43 10.09 16H13.91C13.48 17.43 12.83 18.76 12 19.96ZM14.34 14H9.66C9.57 13.34 9.5 12.68 9.5 12C9.5 11.32 9.57 10.65 9.66 10H14.34C14.43 10.65 14.5 11.32 14.5 12C14.5 12.68 14.43 13.34 14.34 14ZM14.59 19.56C15.19 18.45 15.65 17.25 15.97 16H18.92C17.9512 17.6683 16.4141 18.932 14.59 19.56V19.56ZM16.36 14C16.44 13.34 16.5 12.68 16.5 12C16.5 11.32 16.44 10.66 16.36 10H19.74C19.9 10.64 20 11.31 20 12C20 12.69 19.9 13.36 19.74 14H16.36Z" fill="white"/>
<path d="M33.476 21V8.508H35.168V21H33.476ZM34.628 21V19.452H41.792V21H34.628ZM34.628 15.348V13.872H41.198V15.348H34.628ZM34.628 10.056V8.508H41.702V10.056H34.628ZM49.8532 21V16.014C49.8532 15.366 49.6492 14.832 49.2412 14.412C48.8332 13.992 48.3052 13.782 47.6572 13.782C47.2252 13.782 46.8412 13.878 46.5052 14.07C46.1692 14.262 45.9052 14.526 45.7132 14.862C45.5212 15.198 45.4252 15.582 45.4252 16.014L44.7592 15.636C44.7592 14.988 44.9032 14.412 45.1912 13.908C45.4792 13.404 45.8812 13.008 46.3972 12.72C46.9132 12.42 47.4952 12.27 48.1432 12.27C48.7912 12.27 49.3612 12.432 49.8532 12.756C50.3572 13.08 50.7532 13.506 51.0412 14.034C51.3292 14.55 51.4732 15.102 51.4732 15.69V21H49.8532ZM43.8052 21V12.45H45.4252V21H43.8052ZM57.2125 24.762C56.3365 24.762 55.5565 24.6 54.8725 24.276C54.2005 23.952 53.6605 23.496 53.2525 22.908L54.2965 21.846C54.6445 22.29 55.0585 22.626 55.5385 22.854C56.0185 23.094 56.5885 23.214 57.2485 23.214C58.1245 23.214 58.8145 22.98 59.3185 22.512C59.8345 22.056 60.0925 21.438 60.0925 20.658V18.534L60.3805 16.608L60.0925 14.7V12.45H61.7125V20.658C61.7125 21.474 61.5205 22.188 61.1365 22.8C60.7645 23.412 60.2365 23.892 59.5525 24.24C58.8805 24.588 58.1005 24.762 57.2125 24.762ZM57.2125 20.856C56.4325 20.856 55.7305 20.67 55.1065 20.298C54.4945 19.926 54.0085 19.416 53.6485 18.768C53.2885 18.108 53.1085 17.37 53.1085 16.554C53.1085 15.738 53.2885 15.012 53.6485 14.376C54.0085 13.728 54.4945 13.218 55.1065 12.846C55.7305 12.462 56.4325 12.27 57.2125 12.27C57.8845 12.27 58.4785 12.402 58.9945 12.666C59.5105 12.93 59.9185 13.302 60.2185 13.782C60.5305 14.25 60.6985 14.802 60.7225 15.438V17.706C60.6865 18.33 60.5125 18.882 60.2005 19.362C59.9005 19.83 59.4925 20.196 58.9765 20.46C58.4605 20.724 57.8725 20.856 57.2125 20.856ZM57.5365 19.326C58.0645 19.326 58.5265 19.212 58.9225 18.984C59.3305 18.756 59.6425 18.438 59.8585 18.03C60.0745 17.61 60.1825 17.124 60.1825 16.572C60.1825 16.02 60.0685 15.54 59.8405 15.132C59.6245 14.712 59.3185 14.388 58.9225 14.16C58.5265 13.92 58.0585 13.8 57.5185 13.8C56.9785 13.8 56.5045 13.92 56.0965 14.16C55.6885 14.388 55.3645 14.712 55.1245 15.132C54.8965 15.54 54.7825 16.014 54.7825 16.554C54.7825 17.094 54.8965 17.574 55.1245 17.994C55.3645 18.414 55.6885 18.744 56.0965 18.984C56.5165 19.212 56.9965 19.326 57.5365 19.326ZM64.0903 21V8.148H65.7103V21H64.0903ZM68.0986 21V12.45H69.7186V21H68.0986ZM68.9086 10.74C68.6086 10.74 68.3626 10.644 68.1706 10.452C67.9786 10.248 67.8826 9.996 67.8826 9.696C67.8826 9.408 67.9786 9.168 68.1706 8.976C68.3626 8.772 68.6086 8.67 68.9086 8.67C69.2086 8.67 69.4546 8.772 69.6466 8.976C69.8386 9.168 69.9346 9.408 69.9346 9.696C69.9346 9.996 69.8386 10.248 69.6466 10.452C69.4546 10.644 69.2086 10.74 68.9086 10.74ZM74.824 21.18C74.344 21.18 73.888 21.12 73.456 21C73.036 20.868 72.646 20.688 72.286 20.46C71.926 20.22 71.614 19.938 71.35 19.614L72.394 18.57C72.706 18.954 73.066 19.242 73.474 19.434C73.882 19.614 74.338 19.704 74.842 19.704C75.346 19.704 75.736 19.62 76.012 19.452C76.288 19.272 76.426 19.026 76.426 18.714C76.426 18.402 76.312 18.162 76.084 17.994C75.868 17.814 75.586 17.67 75.238 17.562C74.89 17.442 74.518 17.328 74.122 17.22C73.738 17.1 73.372 16.95 73.024 16.77C72.676 16.59 72.388 16.344 72.16 16.032C71.944 15.72 71.836 15.306 71.836 14.79C71.836 14.274 71.962 13.83 72.214 13.458C72.466 13.074 72.814 12.78 73.258 12.576C73.714 12.372 74.26 12.27 74.896 12.27C75.568 12.27 76.162 12.39 76.678 12.63C77.206 12.858 77.638 13.206 77.974 13.674L76.93 14.718C76.69 14.406 76.39 14.166 76.03 13.998C75.682 13.83 75.286 13.746 74.842 13.746C74.374 13.746 74.014 13.83 73.762 13.998C73.522 14.154 73.402 14.376 73.402 14.664C73.402 14.952 73.51 15.174 73.726 15.33C73.942 15.486 74.224 15.618 74.572 15.726C74.932 15.834 75.304 15.948 75.688 16.068C76.072 16.176 76.438 16.326 76.786 16.518C77.134 16.71 77.416 16.968 77.632 17.292C77.86 17.616 77.974 18.042 77.974 18.57C77.974 19.374 77.686 20.01 77.11 20.478C76.546 20.946 75.784 21.18 74.824 21.18ZM85.8356 21V16.014C85.8356 15.366 85.6316 14.832 85.2236 14.412C84.8156 13.992 84.2876 13.782 83.6396 13.782C83.2076 13.782 82.8236 13.878 82.4876 14.07C82.1516 14.262 81.8876 14.526 81.6956 14.862C81.5036 15.198 81.4076 15.582 81.4076 16.014L80.7416 15.636C80.7416 14.988 80.8856 14.412 81.1736 13.908C81.4616 13.404 81.8636 13.008 82.3796 12.72C82.8956 12.42 83.4776 12.27 84.1256 12.27C84.7736 12.27 85.3436 12.414 85.8356 12.702C86.3396 12.99 86.7356 13.392 87.0236 13.908C87.3116 14.424 87.4556 15.018 87.4556 15.69V21H85.8356ZM79.7876 21V8.148H81.4076V21H79.7876Z" fill="white"/>
<g clip-path="url(#clip0_1984_12956)">
<path d="M113 6.03925V8.66659H116.752L113 6.03925ZM116.109 20.6666H121.667V16.7753L116.109 20.6666ZM128.333 16.7759V20.6666H133.89L128.333 16.7759ZM113 15.3333V17.9606L116.753 15.3333H113ZM133.891 3.33325H128.333V7.22459L133.891 3.33325ZM137 17.9613V15.3333H133.246L137 17.9613ZM137 8.66659V6.03925L133.247 8.66659H137ZM121.667 3.33325H116.109L121.667 7.22459V3.33325Z" fill="#00247D"/>
<path d="M129.76 15.3332L136.234 19.8672C136.551 19.5415 136.778 19.14 136.894 18.7012L132.084 15.3332H129.76ZM121.666 15.3332H120.239L113.765 19.8666C114.112 20.2199 114.558 20.4726 115.057 20.5899L121.666 15.9619V15.3332ZM128.333 8.66658H129.76L136.234 4.13325C135.881 3.77476 135.433 3.52393 134.943 3.40991L128.333 8.03791V8.66658ZM120.239 8.66658L113.765 4.13325C113.449 4.45923 113.222 4.86061 113.104 5.29925L117.914 8.66658H120.239Z" fill="#CF1B2B"/>
<path d="M137 13.9999H127V20.6666H128.333V16.7759L133.89 20.6666H134.333C134.688 20.6666 135.038 20.596 135.365 20.4587C135.691 20.3214 135.987 20.1204 136.235 19.8673L129.76 15.3333H132.085L136.895 18.7013C136.957 18.4766 137 18.2439 137 17.9999V17.9613L133.246 15.3333H137V13.9999ZM113 13.9999V15.3333H116.753L113 17.9606V17.9999C113 18.7273 113.293 19.3853 113.765 19.8666L120.239 15.3333H121.667V15.9619L115.057 20.5893C115.253 20.6359 115.456 20.6666 115.667 20.6666H116.109L121.667 16.7753V20.6666H123V13.9999H113ZM137 5.99992C137 5.30124 136.725 4.63055 136.235 4.13325L129.761 8.66659H128.333V8.03792L134.943 3.40992C134.744 3.36094 134.539 3.33521 134.333 3.33325H133.891L128.333 7.22459V3.33325H127V9.99992H137V8.66659H133.247L137 6.03925V5.99992ZM121.667 3.33325V7.22459L116.109 3.33325H115.667C115.312 3.3331 114.962 3.40379 114.635 3.54118C114.309 3.67857 114.013 3.87987 113.765 4.13325L120.239 8.66659H117.915L113.105 5.29925C113.039 5.52706 113.003 5.76273 113 5.99992V6.03925L116.752 8.66659H113V9.99992H123V3.33325H121.667Z" fill="#EEEEEE"/>
<path d="M127 9.99992V3.33325H123V9.99992H113V13.9999H123V20.6666H127V13.9999H137V9.99992H127Z" fill="#CF1B2B"/>
</g>
<path d="M151.156 21.18C150.232 21.18 149.404 20.976 148.672 20.568C147.952 20.148 147.382 19.578 146.962 18.858C146.542 18.126 146.332 17.298 146.332 16.374V8.508H148.024V16.338C148.024 16.998 148.162 17.568 148.438 18.048C148.714 18.528 149.086 18.9 149.554 19.164C150.034 19.428 150.568 19.56 151.156 19.56C151.768 19.56 152.302 19.428 152.758 19.164C153.226 18.9 153.592 18.528 153.856 18.048C154.132 17.568 154.27 17.004 154.27 16.356V8.508H155.98V16.392C155.98 17.316 155.77 18.138 155.35 18.858C154.93 19.578 154.36 20.148 153.64 20.568C152.92 20.976 152.092 21.18 151.156 21.18ZM164.523 21V16.014C164.523 15.366 164.319 14.832 163.911 14.412C163.503 13.992 162.975 13.782 162.327 13.782C161.895 13.782 161.511 13.878 161.175 14.07C160.839 14.262 160.575 14.526 160.383 14.862C160.191 15.198 160.095 15.582 160.095 16.014L159.429 15.636C159.429 14.988 159.573 14.412 159.861 13.908C160.149 13.404 160.551 13.008 161.067 12.72C161.583 12.42 162.165 12.27 162.813 12.27C163.461 12.27 164.031 12.432 164.523 12.756C165.027 13.08 165.423 13.506 165.711 14.034C165.999 14.55 166.143 15.102 166.143 15.69V21H164.523ZM158.475 21V12.45H160.095V21H158.475ZM168.354 21V12.45H169.974V21H168.354ZM169.164 10.74C168.864 10.74 168.618 10.644 168.426 10.452C168.234 10.248 168.138 9.996 168.138 9.696C168.138 9.408 168.234 9.168 168.426 8.976C168.618 8.772 168.864 8.67 169.164 8.67C169.464 8.67 169.71 8.772 169.902 8.976C170.094 9.168 170.19 9.408 170.19 9.696C170.19 9.996 170.094 10.248 169.902 10.452C169.71 10.644 169.464 10.74 169.164 10.74ZM173.676 21V8.868H175.296V21H173.676ZM171.57 13.926V12.45H177.402V13.926H171.57ZM182.685 21.18C181.833 21.18 181.065 20.988 180.381 20.604C179.697 20.208 179.157 19.674 178.761 19.002C178.365 18.33 178.167 17.568 178.167 16.716C178.167 15.876 178.359 15.12 178.743 14.448C179.139 13.776 179.667 13.248 180.327 12.864C180.999 12.468 181.749 12.27 182.577 12.27C183.369 12.27 184.065 12.45 184.665 12.81C185.277 13.17 185.751 13.668 186.087 14.304C186.435 14.94 186.609 15.66 186.609 16.464C186.609 16.584 186.603 16.716 186.591 16.86C186.579 16.992 186.555 17.148 186.519 17.328H179.301V15.978H185.655L185.061 16.5C185.061 15.924 184.959 15.438 184.755 15.042C184.551 14.634 184.263 14.322 183.891 14.106C183.519 13.878 183.069 13.764 182.541 13.764C181.989 13.764 181.503 13.884 181.083 14.124C180.663 14.364 180.339 14.7 180.111 15.132C179.883 15.564 179.769 16.074 179.769 16.662C179.769 17.262 179.889 17.79 180.129 18.246C180.369 18.69 180.711 19.038 181.155 19.29C181.599 19.53 182.109 19.65 182.685 19.65C183.165 19.65 183.603 19.566 183.999 19.398C184.407 19.23 184.755 18.978 185.043 18.642L186.087 19.704C185.679 20.184 185.175 20.55 184.575 20.802C183.987 21.054 183.357 21.18 182.685 21.18ZM191.994 21.18C191.202 21.18 190.494 20.988 189.87 20.604C189.246 20.208 188.748 19.674 188.375 19.002C188.016 18.33 187.836 17.574 187.836 16.734C187.836 15.894 188.016 15.138 188.375 14.466C188.748 13.794 189.246 13.26 189.87 12.864C190.494 12.468 191.202 12.27 191.994 12.27C192.63 12.27 193.206 12.408 193.722 12.684C194.238 12.948 194.652 13.32 194.964 13.8C195.288 14.268 195.468 14.814 195.504 15.438V18.012C195.468 18.624 195.294 19.17 194.982 19.65C194.67 20.13 194.256 20.508 193.74 20.784C193.224 21.048 192.642 21.18 191.994 21.18ZM192.264 19.65C192.804 19.65 193.272 19.524 193.668 19.272C194.076 19.02 194.394 18.678 194.622 18.246C194.85 17.802 194.964 17.298 194.964 16.734C194.964 16.146 194.844 15.636 194.604 15.204C194.376 14.772 194.058 14.43 193.65 14.178C193.254 13.926 192.786 13.8 192.246 13.8C191.706 13.8 191.232 13.926 190.824 14.178C190.416 14.43 190.092 14.778 189.852 15.222C189.624 15.654 189.51 16.152 189.51 16.716C189.51 17.292 189.624 17.802 189.852 18.246C190.092 18.678 190.416 19.02 190.824 19.272C191.244 19.524 191.724 19.65 192.264 19.65ZM196.494 21H194.856V18.696L195.162 16.608L194.856 14.538V8.148H196.494V21ZM214.35 21L208.05 14.484L214.224 8.508H216.42L209.76 14.916V13.98L216.6 21H214.35ZM206.628 21V8.508H208.32V21H206.628ZM218.347 21V12.45H219.967V21H218.347ZM219.157 10.74C218.857 10.74 218.611 10.644 218.419 10.452C218.227 10.248 218.131 9.996 218.131 9.696C218.131 9.408 218.227 9.168 218.419 8.976C218.611 8.772 218.857 8.67 219.157 8.67C219.457 8.67 219.703 8.772 219.895 8.976C220.087 9.168 220.183 9.408 220.183 9.696C220.183 9.996 220.087 10.248 219.895 10.452C219.703 10.644 219.457 10.74 219.157 10.74ZM228.402 21V16.014C228.402 15.366 228.198 14.832 227.79 14.412C227.382 13.992 226.854 13.782 226.206 13.782C225.774 13.782 225.39 13.878 225.054 14.07C224.718 14.262 224.454 14.526 224.262 14.862C224.07 15.198 223.974 15.582 223.974 16.014L223.308 15.636C223.308 14.988 223.452 14.412 223.74 13.908C224.028 13.404 224.43 13.008 224.946 12.72C225.462 12.42 226.044 12.27 226.692 12.27C227.34 12.27 227.91 12.432 228.402 12.756C228.906 13.08 229.302 13.506 229.59 14.034C229.878 14.55 230.022 15.102 230.022 15.69V21H228.402ZM222.354 21V12.45H223.974V21H222.354ZM235.761 24.762C234.885 24.762 234.105 24.6 233.421 24.276C232.749 23.952 232.209 23.496 231.801 22.908L232.845 21.846C233.193 22.29 233.607 22.626 234.087 22.854C234.567 23.094 235.137 23.214 235.797 23.214C236.673 23.214 237.363 22.98 237.867 22.512C238.383 22.056 238.641 21.438 238.641 20.658V18.534L238.929 16.608L238.641 14.7V12.45H240.261V20.658C240.261 21.474 240.069 22.188 239.685 22.8C239.313 23.412 238.785 23.892 238.101 24.24C237.429 24.588 236.649 24.762 235.761 24.762ZM235.761 20.856C234.981 20.856 234.279 20.67 233.655 20.298C233.043 19.926 232.557 19.416 232.197 18.768C231.837 18.108 231.657 17.37 231.657 16.554C231.657 15.738 231.837 15.012 232.197 14.376C232.557 13.728 233.043 13.218 233.655 12.846C234.279 12.462 234.981 12.27 235.761 12.27C236.433 12.27 237.027 12.402 237.543 12.666C238.059 12.93 238.467 13.302 238.767 13.782C239.079 14.25 239.247 14.802 239.271 15.438V17.706C239.235 18.33 239.061 18.882 238.749 19.362C238.449 19.83 238.041 20.196 237.525 20.46C237.009 20.724 236.421 20.856 235.761 20.856ZM236.085 19.326C236.613 19.326 237.075 19.212 237.471 18.984C237.879 18.756 238.191 18.438 238.407 18.03C238.623 17.61 238.731 17.124 238.731 16.572C238.731 16.02 238.617 15.54 238.389 15.132C238.173 14.712 237.867 14.388 237.471 14.16C237.075 13.92 236.607 13.8 236.067 13.8C235.527 13.8 235.053 13.92 234.645 14.16C234.237 14.388 233.913 14.712 233.673 15.132C233.445 15.54 233.331 16.014 233.331 16.554C233.331 17.094 233.445 17.574 233.673 17.994C233.913 18.414 234.237 18.744 234.645 18.984C235.065 19.212 235.545 19.326 236.085 19.326ZM246.257 21.18C245.465 21.18 244.757 20.988 244.133 20.604C243.509 20.208 243.011 19.674 242.639 19.002C242.279 18.33 242.099 17.574 242.099 16.734C242.099 15.894 242.279 15.138 242.639 14.466C243.011 13.794 243.509 13.26 244.133 12.864C244.757 12.468 245.465 12.27 246.257 12.27C246.893 12.27 247.469 12.408 247.985 12.684C248.501 12.948 248.915 13.32 249.227 13.8C249.551 14.268 249.731 14.814 249.767 15.438V18.012C249.731 18.624 249.557 19.17 249.245 19.65C248.933 20.13 248.519 20.508 248.003 20.784C247.487 21.048 246.905 21.18 246.257 21.18ZM246.527 19.65C247.067 19.65 247.535 19.524 247.931 19.272C248.339 19.02 248.657 18.678 248.885 18.246C249.113 17.802 249.227 17.298 249.227 16.734C249.227 16.146 249.107 15.636 248.867 15.204C248.639 14.772 248.321 14.43 247.913 14.178C247.517 13.926 247.049 13.8 246.509 13.8C245.969 13.8 245.495 13.926 245.087 14.178C244.679 14.43 244.355 14.778 244.115 15.222C243.887 15.654 243.773 16.152 243.773 16.716C243.773 17.292 243.887 17.802 244.115 18.246C244.355 18.678 244.679 19.02 245.087 19.272C245.507 19.524 245.987 19.65 246.527 19.65ZM250.757 21H249.119V18.696L249.425 16.608L249.119 14.538V8.148H250.757V21ZM257.022 21.18C256.182 21.18 255.426 20.982 254.754 20.586C254.082 20.19 253.548 19.656 253.152 18.984C252.756 18.3 252.558 17.538 252.558 16.698C252.558 15.87 252.756 15.126 253.152 14.466C253.548 13.794 254.082 13.26 254.754 12.864C255.426 12.468 256.182 12.27 257.022 12.27C257.85 12.27 258.6 12.468 259.272 12.864C259.956 13.248 260.496 13.776 260.892 14.448C261.288 15.12 261.486 15.87 261.486 16.698C261.486 17.538 261.288 18.3 260.892 18.984C260.496 19.656 259.956 20.19 259.272 20.586C258.6 20.982 257.85 21.18 257.022 21.18ZM257.022 19.614C257.562 19.614 258.042 19.488 258.462 19.236C258.882 18.984 259.212 18.642 259.452 18.21C259.692 17.766 259.812 17.262 259.812 16.698C259.812 16.146 259.686 15.654 259.434 15.222C259.194 14.79 258.864 14.454 258.444 14.214C258.036 13.962 257.562 13.836 257.022 13.836C256.482 13.836 256.002 13.962 255.582 14.214C255.162 14.454 254.832 14.79 254.592 15.222C254.352 15.654 254.232 16.146 254.232 16.698C254.232 17.262 254.352 17.766 254.592 18.21C254.832 18.642 255.162 18.984 255.582 19.236C256.002 19.488 256.482 19.614 257.022 19.614ZM263.311 21V12.45H264.931V21H263.311ZM269.089 21V15.834C269.089 15.198 268.891 14.7 268.495 14.34C268.111 13.968 267.625 13.782 267.037 13.782C266.641 13.782 266.287 13.866 265.975 14.034C265.663 14.202 265.411 14.436 265.219 14.736C265.027 15.036 264.931 15.396 264.931 15.816L264.265 15.492C264.265 14.844 264.403 14.28 264.679 13.8C264.967 13.32 265.357 12.948 265.849 12.684C266.341 12.408 266.893 12.27 267.505 12.27C268.105 12.27 268.645 12.402 269.125 12.666C269.617 12.93 270.001 13.302 270.277 13.782C270.565 14.262 270.709 14.832 270.709 15.492V21H269.089ZM274.867 21V15.834C274.867 15.198 274.669 14.7 274.273 14.34C273.889 13.968 273.409 13.782 272.833 13.782C272.437 13.782 272.077 13.866 271.753 14.034C271.441 14.202 271.189 14.436 270.997 14.736C270.805 15.036 270.709 15.396 270.709 15.816L269.791 15.492C269.827 14.832 270.001 14.268 270.313 13.8C270.637 13.32 271.051 12.948 271.555 12.684C272.059 12.408 272.611 12.27 273.211 12.27C273.835 12.27 274.393 12.402 274.885 12.666C275.377 12.93 275.767 13.302 276.055 13.782C276.355 14.262 276.505 14.838 276.505 15.51V21H274.867Z" fill="white"/>
<path d="M322 16.2461C322 15.9507 321.942 15.6581 321.829 15.3852C321.716 15.1123 321.55 14.8643 321.341 14.6555C321.132 14.4466 320.884 14.281 320.611 14.168C320.338 14.055 320.045 13.997 319.75 13.9971H308.25C307.954 13.997 307.662 14.0551 307.389 14.1681C307.116 14.2811 306.868 14.4468 306.659 14.6558C306.45 14.8648 306.284 15.1129 306.171 15.3859C306.058 15.6589 306 15.9516 306 16.2471V17.1671C306 17.7381 306.178 18.2961 306.51 18.7621C308.053 20.9261 310.575 21.9981 313.996 21.9981C317.416 21.9981 319.941 20.9271 321.486 18.7631C321.819 18.2973 321.999 17.739 322 17.1661V16.2471V16.2461ZM318.997 7.00209C318.997 5.94905 318.665 4.92284 318.047 4.0698C317.43 3.21676 316.559 2.58044 315.559 2.25156C314.558 1.92269 313.48 1.91805 312.476 2.23831C311.473 2.55858 310.597 3.18739 309.972 4.03509C309.9 4.01214 309.824 4.00034 309.748 4.00009H307.25C307.051 4.00009 306.86 4.07911 306.72 4.21976C306.579 4.36041 306.5 4.55118 306.5 4.75009V10.2481C306.5 10.6094 306.571 10.9672 306.709 11.3011C306.847 11.635 307.049 11.9384 307.305 12.1939C307.56 12.4495 307.863 12.6522 308.197 12.7906C308.531 12.9289 308.889 13.0001 309.25 13.0001H309.5V12.9961H309.51C309.679 12.9964 309.846 12.9535 309.994 12.8715C310.143 12.7895 310.268 12.6712 310.358 12.5276C310.447 12.3839 310.499 12.2198 310.508 12.0506C310.517 11.8814 310.483 11.7127 310.408 11.5605C310.334 11.4082 310.222 11.2774 310.084 11.1803C309.945 11.0832 309.783 11.023 309.615 11.0055C309.446 10.9879 309.276 11.0136 309.12 11.08C308.964 11.1464 308.828 11.2514 308.724 11.3851C308.507 11.2846 308.324 11.1243 308.196 10.923C308.068 10.7217 308 10.4878 308 10.2491V10.0001H308.748C309.128 10.0001 309.481 9.87809 309.768 9.67209C310.346 10.5891 311.207 11.2932 312.221 11.6784C313.234 12.0636 314.345 12.1089 315.387 11.8076C316.428 11.5063 317.343 10.8747 317.994 10.0079C318.646 9.14118 318.998 8.08623 318.997 7.00209V7.00209ZM308.997 6.89609C308.996 6.96675 308.996 7.03743 308.997 7.10809V8.24909C308.997 8.31539 308.971 8.37898 308.924 8.42587C308.877 8.47275 308.813 8.49909 308.747 8.49909H308V5.50109H308.998V6.89609H308.997Z" fill="white"/>
<path d="M341.146 21.18C340.246 21.18 339.412 21.018 338.644 20.694C337.876 20.358 337.204 19.896 336.628 19.308C336.064 18.72 335.626 18.036 335.314 17.256C335.002 16.476 334.846 15.642 334.846 14.754C334.846 13.854 335.002 13.014 335.314 12.234C335.626 11.454 336.064 10.776 336.628 10.2C337.204 9.612 337.87 9.156 338.626 8.832C339.394 8.496 340.228 8.328 341.128 8.328C342.112 8.328 342.976 8.496 343.72 8.832C344.464 9.168 345.124 9.624 345.7 10.2L344.53 11.37C344.134 10.926 343.648 10.578 343.072 10.326C342.508 10.074 341.86 9.948 341.128 9.948C340.468 9.948 339.862 10.068 339.31 10.308C338.758 10.536 338.278 10.866 337.87 11.298C337.462 11.73 337.144 12.24 336.916 12.828C336.7 13.416 336.592 14.058 336.592 14.754C336.592 15.45 336.7 16.092 336.916 16.68C337.144 17.268 337.462 17.778 337.87 18.21C338.278 18.642 338.758 18.978 339.31 19.218C339.862 19.446 340.468 19.56 341.128 19.56C341.908 19.56 342.586 19.434 343.162 19.182C343.738 18.918 344.224 18.564 344.62 18.12L345.79 19.272C345.214 19.872 344.536 20.34 343.756 20.676C342.988 21.012 342.118 21.18 341.146 21.18ZM351.019 21.18C350.323 21.18 349.693 21.024 349.129 20.712C348.577 20.388 348.145 19.944 347.833 19.38C347.521 18.816 347.365 18.162 347.365 17.418V12.45H348.985V17.346C348.985 17.814 349.063 18.222 349.219 18.57C349.387 18.906 349.627 19.164 349.939 19.344C350.251 19.524 350.617 19.614 351.037 19.614C351.673 19.614 352.171 19.416 352.531 19.02C352.891 18.612 353.071 18.054 353.071 17.346V12.45H354.691V17.418C354.691 18.162 354.535 18.816 354.223 19.38C353.911 19.944 353.479 20.388 352.927 20.712C352.387 21.024 351.751 21.18 351.019 21.18ZM359.58 21.18C359.1 21.18 358.644 21.12 358.212 21C357.792 20.868 357.402 20.688 357.042 20.46C356.682 20.22 356.37 19.938 356.106 19.614L357.15 18.57C357.462 18.954 357.822 19.242 358.23 19.434C358.638 19.614 359.094 19.704 359.598 19.704C360.102 19.704 360.492 19.62 360.768 19.452C361.044 19.272 361.182 19.026 361.182 18.714C361.182 18.402 361.068 18.162 360.84 17.994C360.624 17.814 360.342 17.67 359.994 17.562C359.646 17.442 359.274 17.328 358.878 17.22C358.494 17.1 358.128 16.95 357.78 16.77C357.432 16.59 357.144 16.344 356.916 16.032C356.7 15.72 356.592 15.306 356.592 14.79C356.592 14.274 356.718 13.83 356.97 13.458C357.222 13.074 357.57 12.78 358.014 12.576C358.47 12.372 359.016 12.27 359.652 12.27C360.324 12.27 360.918 12.39 361.434 12.63C361.962 12.858 362.394 13.206 362.73 13.674L361.686 14.718C361.446 14.406 361.146 14.166 360.786 13.998C360.438 13.83 360.042 13.746 359.598 13.746C359.13 13.746 358.77 13.83 358.518 13.998C358.278 14.154 358.158 14.376 358.158 14.664C358.158 14.952 358.266 15.174 358.482 15.33C358.698 15.486 358.98 15.618 359.328 15.726C359.688 15.834 360.06 15.948 360.444 16.068C360.828 16.176 361.194 16.326 361.542 16.518C361.89 16.71 362.172 16.968 362.388 17.292C362.616 17.616 362.73 18.042 362.73 18.57C362.73 19.374 362.442 20.01 361.866 20.478C361.302 20.946 360.54 21.18 359.58 21.18ZM365.857 21V8.868H367.477V21H365.857ZM363.751 13.926V12.45H369.583V13.926H363.751ZM374.813 21.18C373.973 21.18 373.217 20.982 372.545 20.586C371.873 20.19 371.339 19.656 370.943 18.984C370.547 18.3 370.349 17.538 370.349 16.698C370.349 15.87 370.547 15.126 370.943 14.466C371.339 13.794 371.873 13.26 372.545 12.864C373.217 12.468 373.973 12.27 374.813 12.27C375.641 12.27 376.391 12.468 377.063 12.864C377.747 13.248 378.287 13.776 378.683 14.448C379.079 15.12 379.277 15.87 379.277 16.698C379.277 17.538 379.079 18.3 378.683 18.984C378.287 19.656 377.747 20.19 377.063 20.586C376.391 20.982 375.641 21.18 374.813 21.18ZM374.813 19.614C375.353 19.614 375.833 19.488 376.253 19.236C376.673 18.984 377.003 18.642 377.243 18.21C377.483 17.766 377.603 17.262 377.603 16.698C377.603 16.146 377.477 15.654 377.225 15.222C376.985 14.79 376.655 14.454 376.235 14.214C375.827 13.962 375.353 13.836 374.813 13.836C374.273 13.836 373.793 13.962 373.373 14.214C372.953 14.454 372.623 14.79 372.383 15.222C372.143 15.654 372.023 16.146 372.023 16.698C372.023 17.262 372.143 17.766 372.383 18.21C372.623 18.642 372.953 18.984 373.373 19.236C373.793 19.488 374.273 19.614 374.813 19.614ZM381.102 21V12.45H382.722V21H381.102ZM386.88 21V15.834C386.88 15.198 386.682 14.7 386.286 14.34C385.902 13.968 385.416 13.782 384.828 13.782C384.432 13.782 384.078 13.866 383.766 14.034C383.454 14.202 383.202 14.436 383.01 14.736C382.818 15.036 382.722 15.396 382.722 15.816L382.056 15.492C382.056 14.844 382.194 14.28 382.47 13.8C382.758 13.32 383.148 12.948 383.64 12.684C384.132 12.408 384.684 12.27 385.296 12.27C385.896 12.27 386.436 12.402 386.916 12.666C387.408 12.93 387.792 13.302 388.068 13.782C388.356 14.262 388.5 14.832 388.5 15.492V21H386.88ZM392.658 21V15.834C392.658 15.198 392.46 14.7 392.064 14.34C391.68 13.968 391.2 13.782 390.624 13.782C390.228 13.782 389.868 13.866 389.544 14.034C389.232 14.202 388.98 14.436 388.788 14.736C388.596 15.036 388.5 15.396 388.5 15.816L387.582 15.492C387.618 14.832 387.792 14.268 388.104 13.8C388.428 13.32 388.842 12.948 389.346 12.684C389.85 12.408 390.402 12.27 391.002 12.27C391.626 12.27 392.184 12.402 392.676 12.666C393.168 12.93 393.558 13.302 393.846 13.782C394.146 14.262 394.296 14.838 394.296 15.51V21H392.658ZM400.461 21.18C399.609 21.18 398.841 20.988 398.157 20.604C397.473 20.208 396.933 19.674 396.537 19.002C396.141 18.33 395.943 17.568 395.943 16.716C395.943 15.876 396.135 15.12 396.519 14.448C396.915 13.776 397.443 13.248 398.103 12.864C398.775 12.468 399.525 12.27 400.353 12.27C401.145 12.27 401.841 12.45 402.441 12.81C403.053 13.17 403.527 13.668 403.863 14.304C404.211 14.94 404.385 15.66 404.385 16.464C404.385 16.584 404.379 16.716 404.367 16.86C404.355 16.992 404.331 17.148 404.295 17.328H397.077V15.978H403.431L402.837 16.5C402.837 15.924 402.735 15.438 402.531 15.042C402.327 14.634 402.039 14.322 401.667 14.106C401.295 13.878 400.845 13.764 400.317 13.764C399.765 13.764 399.279 13.884 398.859 14.124C398.439 14.364 398.115 14.7 397.887 15.132C397.659 15.564 397.545 16.074 397.545 16.662C397.545 17.262 397.665 17.79 397.905 18.246C398.145 18.69 398.487 19.038 398.931 19.29C399.375 19.53 399.885 19.65 400.461 19.65C400.941 19.65 401.379 19.566 401.775 19.398C402.183 19.23 402.531 18.978 402.819 18.642L403.863 19.704C403.455 20.184 402.951 20.55 402.351 20.802C401.763 21.054 401.133 21.18 400.461 21.18ZM406.151 21V12.45H407.771V21H406.151ZM407.771 16.122L407.159 15.852C407.159 14.76 407.411 13.89 407.915 13.242C408.419 12.594 409.145 12.27 410.093 12.27C410.525 12.27 410.915 12.348 411.263 12.504C411.611 12.648 411.935 12.894 412.235 13.242L411.173 14.34C410.993 14.148 410.795 14.01 410.579 13.926C410.363 13.842 410.111 13.8 409.823 13.8C409.223 13.8 408.731 13.992 408.347 14.376C407.963 14.76 407.771 15.342 407.771 16.122ZM421.198 21.18C420.214 21.18 419.374 21 418.678 20.64C417.982 20.28 417.364 19.758 416.824 19.074L417.976 17.922C418.372 18.474 418.828 18.894 419.344 19.182C419.86 19.458 420.496 19.596 421.252 19.596C421.996 19.596 422.59 19.434 423.034 19.11C423.49 18.786 423.718 18.342 423.718 17.778C423.718 17.31 423.61 16.932 423.394 16.644C423.178 16.356 422.884 16.122 422.512 15.942C422.152 15.75 421.756 15.582 421.324 15.438C420.892 15.282 420.46 15.12 420.028 14.952C419.596 14.772 419.2 14.556 418.84 14.304C418.48 14.04 418.186 13.698 417.958 13.278C417.742 12.858 417.634 12.33 417.634 11.694C417.634 10.986 417.802 10.386 418.138 9.894C418.486 9.39 418.954 9.006 419.542 8.742C420.142 8.466 420.814 8.328 421.558 8.328C422.374 8.328 423.106 8.49 423.754 8.814C424.402 9.126 424.93 9.54 425.338 10.056L424.186 11.208C423.814 10.776 423.412 10.452 422.98 10.236C422.56 10.02 422.074 9.912 421.522 9.912C420.85 9.912 420.316 10.062 419.92 10.362C419.524 10.65 419.326 11.058 419.326 11.586C419.326 12.006 419.434 12.348 419.65 12.612C419.878 12.864 420.172 13.08 420.532 13.26C420.892 13.44 421.288 13.608 421.72 13.764C422.164 13.908 422.602 14.07 423.034 14.25C423.466 14.43 423.862 14.658 424.222 14.934C424.582 15.21 424.87 15.57 425.086 16.014C425.314 16.446 425.428 16.992 425.428 17.652C425.428 18.756 425.044 19.62 424.276 20.244C423.52 20.868 422.494 21.18 421.198 21.18ZM430.858 21.18C430.162 21.18 429.532 21.024 428.968 20.712C428.416 20.388 427.984 19.944 427.672 19.38C427.36 18.816 427.204 18.162 427.204 17.418V12.45H428.824V17.346C428.824 17.814 428.902 18.222 429.058 18.57C429.226 18.906 429.466 19.164 429.778 19.344C430.09 19.524 430.456 19.614 430.876 19.614C431.512 19.614 432.01 19.416 432.37 19.02C432.73 18.612 432.91 18.054 432.91 17.346V12.45H434.53V17.418C434.53 18.162 434.374 18.816 434.062 19.38C433.75 19.944 433.318 20.388 432.766 20.712C432.226 21.024 431.59 21.18 430.858 21.18ZM441.202 21.18C440.554 21.18 439.966 21.048 439.438 20.784C438.922 20.508 438.508 20.13 438.196 19.65C437.884 19.17 437.71 18.624 437.674 18.012V15.438C437.71 14.814 437.884 14.268 438.196 13.8C438.52 13.32 438.94 12.948 439.456 12.684C439.984 12.408 440.566 12.27 441.202 12.27C441.982 12.27 442.684 12.468 443.308 12.864C443.944 13.26 444.442 13.794 444.802 14.466C445.162 15.138 445.342 15.894 445.342 16.734C445.342 17.574 445.162 18.33 444.802 19.002C444.442 19.674 443.944 20.208 443.308 20.604C442.684 20.988 441.982 21.18 441.202 21.18ZM440.932 19.65C441.472 19.65 441.946 19.524 442.354 19.272C442.762 19.02 443.086 18.678 443.326 18.246C443.566 17.802 443.686 17.292 443.686 16.716C443.686 16.152 443.566 15.648 443.326 15.204C443.086 14.76 442.762 14.418 442.354 14.178C441.946 13.926 441.478 13.8 440.95 13.8C440.41 13.8 439.936 13.926 439.528 14.178C439.12 14.418 438.802 14.76 438.574 15.204C438.346 15.648 438.232 16.158 438.232 16.734C438.232 17.298 438.34 17.802 438.556 18.246C438.784 18.678 439.102 19.02 439.51 19.272C439.93 19.524 440.404 19.65 440.932 19.65ZM436.702 24.582V12.45H438.322V14.7L438.016 16.77L438.322 18.858V24.582H436.702ZM451.678 21.18C451.03 21.18 450.442 21.048 449.914 20.784C449.398 20.508 448.984 20.13 448.672 19.65C448.36 19.17 448.186 18.624 448.15 18.012V15.438C448.186 14.814 448.36 14.268 448.672 13.8C448.996 13.32 449.416 12.948 449.932 12.684C450.46 12.408 451.042 12.27 451.678 12.27C452.458 12.27 453.16 12.468 453.784 12.864C454.42 13.26 454.918 13.794 455.278 14.466C455.638 15.138 455.818 15.894 455.818 16.734C455.818 17.574 455.638 18.33 455.278 19.002C454.918 19.674 454.42 20.208 453.784 20.604C453.16 20.988 452.458 21.18 451.678 21.18ZM451.408 19.65C451.948 19.65 452.422 19.524 452.83 19.272C453.238 19.02 453.562 18.678 453.802 18.246C454.042 17.802 454.162 17.292 454.162 16.716C454.162 16.152 454.042 15.648 453.802 15.204C453.562 14.76 453.238 14.418 452.83 14.178C452.422 13.926 451.954 13.8 451.426 13.8C450.886 13.8 450.412 13.926 450.004 14.178C449.596 14.418 449.278 14.76 449.05 15.204C448.822 15.648 448.708 16.158 448.708 16.734C448.708 17.298 448.816 17.802 449.032 18.246C449.26 18.678 449.578 19.02 449.986 19.272C450.406 19.524 450.88 19.65 451.408 19.65ZM447.178 24.582V12.45H448.798V14.7L448.492 16.77L448.798 18.858V24.582H447.178ZM461.561 21.18C460.721 21.18 459.965 20.982 459.293 20.586C458.621 20.19 458.087 19.656 457.691 18.984C457.295 18.3 457.097 17.538 457.097 16.698C457.097 15.87 457.295 15.126 457.691 14.466C458.087 13.794 458.621 13.26 459.293 12.864C459.965 12.468 460.721 12.27 461.561 12.27C462.389 12.27 463.139 12.468 463.811 12.864C464.495 13.248 465.035 13.776 465.431 14.448C465.827 15.12 466.025 15.87 466.025 16.698C466.025 17.538 465.827 18.3 465.431 18.984C465.035 19.656 464.495 20.19 463.811 20.586C463.139 20.982 462.389 21.18 461.561 21.18ZM461.561 19.614C462.101 19.614 462.581 19.488 463.001 19.236C463.421 18.984 463.751 18.642 463.991 18.21C464.231 17.766 464.351 17.262 464.351 16.698C464.351 16.146 464.225 15.654 463.973 15.222C463.733 14.79 463.403 14.454 462.983 14.214C462.575 13.962 462.101 13.836 461.561 13.836C461.021 13.836 460.541 13.962 460.121 14.214C459.701 14.454 459.371 14.79 459.131 15.222C458.891 15.654 458.771 16.146 458.771 16.698C458.771 17.262 458.891 17.766 459.131 18.21C459.371 18.642 459.701 18.984 460.121 19.236C460.541 19.488 461.021 19.614 461.561 19.614ZM467.85 21V12.45H469.47V21H467.85ZM469.47 16.122L468.858 15.852C468.858 14.76 469.11 13.89 469.614 13.242C470.118 12.594 470.844 12.27 471.792 12.27C472.224 12.27 472.614 12.348 472.962 12.504C473.31 12.648 473.634 12.894 473.934 13.242L472.872 14.34C472.692 14.148 472.494 14.01 472.278 13.926C472.062 13.842 471.81 13.8 471.522 13.8C470.922 13.8 470.43 13.992 470.046 14.376C469.662 14.76 469.47 15.342 469.47 16.122ZM476.354 21V8.868H477.974V21H476.354ZM474.248 13.926V12.45H480.08V13.926H474.248Z" fill="white"/>
<defs>
<clipPath id="clip0_1984_12956">
<rect width="24" height="24" fill="white" transform="translate(113)"/>
</clipPath>
</defs>
</svg>
