<svg width="104" height="24" viewBox="0 0 104 24" fill="none" xmlns="http://www.w3.org/2000/svg">
<path d="M11.99 2C6.47 2 2 6.48 2 12C2 17.52 6.47 22 11.99 22C17.52 22 22 17.52 22 12C22 6.48 17.52 2 11.99 2ZM18.92 8H15.97C15.657 6.76146 15.1936 5.5659 14.59 4.44C16.4141 5.068 17.9512 6.33172 18.92 8ZM12 4.04C12.83 5.24 13.48 6.57 13.91 8H10.09C10.52 6.57 11.17 5.24 12 4.04ZM4.26 14C4.1 13.36 4 12.69 4 12C4 11.31 4.1 10.64 4.26 10H7.64C7.56 10.66 7.5 11.32 7.5 12C7.5 12.68 7.56 13.34 7.64 14H4.26ZM5.08 16H8.03C8.35 17.25 8.81 18.45 9.41 19.56C7.58397 18.9354 6.04583 17.6708 5.08 16V16ZM8.03 8H5.08C6.04583 6.32918 7.58397 5.06457 9.41 4.44C8.80643 5.5659 8.34298 6.76146 8.03 8V8ZM12 19.96C11.17 18.76 10.52 17.43 10.09 16H13.91C13.48 17.43 12.83 18.76 12 19.96ZM14.34 14H9.66C9.57 13.34 9.5 12.68 9.5 12C9.5 11.32 9.57 10.65 9.66 10H14.34C14.43 10.65 14.5 11.32 14.5 12C14.5 12.68 14.43 13.34 14.34 14ZM14.59 19.56C15.19 18.45 15.65 17.25 15.97 16H18.92C17.9512 17.6683 16.4141 18.932 14.59 19.56V19.56ZM16.36 14C16.44 13.34 16.5 12.68 16.5 12C16.5 11.32 16.44 10.66 16.36 10H19.74C19.9 10.64 20 11.31 20 12C20 12.69 19.9 13.36 19.74 14H16.36Z" fill="white"/>
<g clip-path="url(#clip0_1984_4734)">
<path d="M40 6.03925V8.66659H43.752L40 6.03925ZM43.1093 20.6666H48.6667V16.7753L43.1093 20.6666ZM55.3333 16.7759V20.6666H60.89L55.3333 16.7759ZM40 15.3333V17.9606L43.7533 15.3333H40ZM60.8913 3.33325H55.3333V7.22459L60.8913 3.33325ZM64 17.9613V15.3333H60.246L64 17.9613ZM64 8.66659V6.03925L60.2473 8.66659H64ZM48.6667 3.33325H43.1093L48.6667 7.22459V3.33325Z" fill="#00247D"/>
<path d="M56.7598 15.3332L63.2345 19.8672C63.5507 19.5415 63.7779 19.14 63.8945 18.7012L59.0845 15.3332H56.7598ZM48.6665 15.3332H47.2392L40.7652 19.8666C41.1125 20.2199 41.5578 20.4726 42.0572 20.5899L48.6665 15.9619V15.3332ZM55.3332 8.66658H56.7605L63.2345 4.13325C62.8812 3.77476 62.4334 3.52393 61.9432 3.40991L55.3332 8.03791V8.66658ZM47.2392 8.66658L40.7652 4.13325C40.4491 4.45923 40.2217 4.86061 40.1045 5.29925L44.9145 8.66658H47.2392Z" fill="#CF1B2B"/>
<path d="M64 13.9999H54V20.6666H55.3333V16.7759L60.89 20.6666H61.3333C61.6875 20.6666 62.0381 20.596 62.3646 20.4587C62.6911 20.3214 62.9869 20.1204 63.2347 19.8673L56.76 15.3333H59.0847L63.8947 18.7013C63.9567 18.4766 64 18.2439 64 17.9999V17.9613L60.246 15.3333H64V13.9999ZM40 13.9999V15.3333H43.7533L40 17.9606V17.9999C40 18.7273 40.2927 19.3853 40.7653 19.8666L47.2393 15.3333H48.6667V15.9619L42.0573 20.5893C42.2533 20.6359 42.456 20.6666 42.6667 20.6666H43.1093L48.6667 16.7753V20.6666H50V13.9999H40ZM64 5.99992C64.0004 5.30124 63.7254 4.63055 63.2347 4.13325L56.7607 8.66659H55.3333V8.03792L61.9433 3.40992C61.7436 3.36094 61.5389 3.33521 61.3333 3.33325H60.8913L55.3333 7.22459V3.33325H54V9.99992H64V8.66659H60.2473L64 6.03925V5.99992ZM48.6667 3.33325V7.22459L43.1093 3.33325H42.6667C42.3124 3.3331 41.9617 3.40379 41.6352 3.54118C41.3087 3.67857 41.0129 3.87987 40.7653 4.13325L47.2393 8.66659H44.9147L40.1047 5.29925C40.0385 5.52706 40.0033 5.76273 40 5.99992V6.03925L43.752 8.66659H40V9.99992H50V3.33325H48.6667Z" fill="#EEEEEE"/>
<path d="M54 9.99992V3.33325H50V9.99992H40V13.9999H50V20.6666H54V13.9999H64V9.99992H54Z" fill="#CF1B2B"/>
</g>
<path d="M100 16.2461C100 15.9507 99.9418 15.6581 99.8287 15.3852C99.7156 15.1123 99.5499 14.8643 99.3409 14.6555C99.132 14.4466 98.8839 14.281 98.611 14.168C98.338 14.055 98.0454 13.997 97.75 13.9971H86.25C85.9545 13.997 85.6618 14.0551 85.3888 14.1681C85.1158 14.2811 84.8677 14.4468 84.6587 14.6558C84.4498 14.8648 84.284 15.1129 84.171 15.3859C84.058 15.6589 83.9999 15.9516 84 16.2471V17.1671C84 17.7381 84.178 18.2961 84.51 18.7621C86.053 20.9261 88.575 21.9981 91.996 21.9981C95.416 21.9981 97.941 20.9271 99.486 18.7631C99.8195 18.2973 99.9992 17.739 100 17.1661V16.2471V16.2461ZM96.997 7.00209C96.9971 5.94905 96.6648 4.92284 96.0474 4.0698C95.4299 3.21676 94.5589 2.58044 93.5585 2.25156C92.5582 1.92269 91.4795 1.91805 90.4763 2.23831C89.4732 2.55858 88.5967 3.18739 87.972 4.03509C87.8995 4.01214 87.824 4.00034 87.748 4.00009H85.25C85.0511 4.00009 84.8603 4.07911 84.7197 4.21976C84.579 4.36041 84.5 4.55118 84.5 4.75009V10.2481C84.4997 10.6094 84.5707 10.9672 84.7088 11.3011C84.8468 11.635 85.0494 11.9384 85.3047 12.1939C85.5601 12.4495 85.8634 12.6522 86.1972 12.7906C86.5309 12.9289 86.8887 13.0001 87.25 13.0001H87.5V12.9961H87.51C87.6794 12.9964 87.8461 12.9535 87.9944 12.8715C88.1427 12.7895 88.2676 12.6712 88.3575 12.5276C88.4474 12.3839 88.4993 12.2198 88.5082 12.0506C88.5171 11.8814 88.4828 11.7127 88.4085 11.5605C88.3342 11.4082 88.2224 11.2774 88.0835 11.1803C87.9447 11.0832 87.7834 11.023 87.6149 11.0055C87.4464 10.9879 87.2762 11.0136 87.1203 11.08C86.9645 11.1464 86.8281 11.2514 86.724 11.3851C86.5074 11.2846 86.3242 11.1243 86.1959 10.923C86.0676 10.7217 85.9996 10.4878 86 10.2491V10.0001H86.748C87.128 10.0001 87.481 9.87809 87.768 9.67209C88.3464 10.5891 89.2071 11.2932 90.2206 11.6784C91.234 12.0636 92.3451 12.1089 93.3865 11.8076C94.428 11.5063 95.3433 10.8747 95.9945 10.0079C96.6457 9.14118 96.9975 8.08623 96.997 7.00209ZM86.997 6.89609C86.9955 6.96675 86.9955 7.03743 86.997 7.10809V8.24909C86.997 8.31539 86.9707 8.37898 86.9238 8.42587C86.8769 8.47275 86.8133 8.49909 86.747 8.49909H86V5.50109H86.998V6.89609H86.997Z" fill="white"/>
<defs>
<clipPath id="clip0_1984_4734">
<rect width="24" height="24" fill="white" transform="translate(40)"/>
</clipPath>
</defs>
</svg>
