<svg width="142" height="48" viewBox="0 0 142 48" fill="none" xmlns="http://www.w3.org/2000/svg">
<path d="M9.596 31.5C9.32048 31.501 9.04786 31.4437 8.796 31.332C7.37072 30.7079 6.15811 29.6822 5.30638 28.3801C4.45466 27.078 4.0007 25.5559 4 24C4.00206 22.2264 4.59241 20.5037 5.67854 19.1016C6.76467 17.6995 8.28523 16.6973 10.002 16.252L10 16C10 9.38201 15.382 4.00001 22 4.00001C24.8341 3.99632 27.5773 5.00022 29.7396 6.83239C31.9018 8.66457 33.3424 11.2057 33.804 14.002C33.892 14.525 33.7686 15.0615 33.4611 15.4936C33.1535 15.9257 32.687 16.2179 32.164 16.306C31.6415 16.3902 31.1069 16.2653 30.6757 15.9584C30.2446 15.6515 29.9515 15.1873 29.86 14.666C29.5531 12.8033 28.5942 11.1103 27.1544 9.88926C25.7147 8.66821 23.8878 7.99861 22 8.00001C20.8117 8.00079 19.6385 8.266 18.5655 8.77642C17.4924 9.28684 16.5464 10.0297 15.796 10.951C15.0456 11.8724 14.5097 12.9492 14.227 14.1034C13.9444 15.2576 13.9222 16.4602 14.162 17.624L14.68 20.164L11.818 19.988C9.794 20 8 21.794 8 24C8 25.59 8.942 27.03 10.4 27.668C10.8208 27.8523 11.1653 28.1759 11.3757 28.5843C11.586 28.9927 11.6494 29.4611 11.555 29.9107C11.4607 30.3603 11.2144 30.7637 10.8577 31.0532C10.5009 31.3426 10.0554 31.5004 9.596 31.5ZM38 14C37.4696 14 36.9609 14.2107 36.5858 14.5858C36.2107 14.9609 36 15.4696 36 16C36 16.5304 36.2107 17.0391 36.5858 17.4142C36.9609 17.7893 37.4696 18 38 18C38.5304 18 39.0391 18.2107 39.4142 18.5858C39.7893 18.9609 40 19.4696 40 20C40 20.5304 39.7893 21.0391 39.4142 21.4142C39.0391 21.7893 38.5304 22 38 22H18.8C18.2696 22 17.7609 22.2107 17.3858 22.5858C17.0107 22.9609 16.8 23.4696 16.8 24C16.8 24.5304 17.0107 25.0391 17.3858 25.4142C17.7609 25.7893 18.2696 26 18.8 26H28C28.5304 26 29.0391 26.2107 29.4142 26.5858C29.7893 26.9609 30 27.4696 30 28C30 28.5304 29.7893 29.0391 29.4142 29.4142C29.0391 29.7893 28.5304 30 28 30H18C14.692 30 12 32.692 12 36C12 39.308 14.692 42 18 42C18.5304 42 19.0391 41.7893 19.4142 41.4142C19.7893 41.0392 20 40.5304 20 40C20 39.4696 19.7893 38.9609 19.4142 38.5858C19.0391 38.2107 18.5304 38 18 38C17.4696 38 16.9609 37.7893 16.5858 37.4142C16.2107 37.0392 16 36.5304 16 36C16 35.4696 16.2107 34.9609 16.5858 34.5858C16.9609 34.2107 17.4696 34 18 34H28C31.308 34 34 31.308 34 28C34 27.294 33.856 26.628 33.63 26H38C41.308 26 44 23.308 44 20C44 16.692 41.308 14 38 14Z" fill="#EF6820"/>
<path d="M56.88 31L52.34 16.88H55.46L58.78 27.74H57.56L60.8 16.88H63.26L66.5 27.74H65.3L68.6 16.88H71.7L67.16 31H64.7L61.44 20.14H62.6L59.34 31H56.88ZM76.4691 31.22C75.4157 31.22 74.4757 31.0067 73.6491 30.58C72.8357 30.14 72.1957 29.5333 71.7291 28.76C71.2624 27.9867 71.0291 27.1133 71.0291 26.14C71.0291 25.1667 71.2557 24.3 71.7091 23.54C72.1757 22.7667 72.8024 22.16 73.5891 21.72C74.3757 21.28 75.2624 21.06 76.2491 21.06C77.2091 21.06 78.0557 21.2667 78.7891 21.68C79.5224 22.0933 80.0957 22.6667 80.5091 23.4C80.9357 24.1333 81.1491 24.9733 81.1491 25.92C81.1491 26.0933 81.1357 26.28 81.1091 26.48C81.0957 26.6667 81.0624 26.8867 81.0091 27.14L72.6291 27.16V25.06L79.7091 25.04L78.3891 25.92C78.3757 25.36 78.2891 24.9 78.1291 24.54C77.9691 24.1667 77.7291 23.8867 77.4091 23.7C77.1024 23.5 76.7224 23.4 76.2691 23.4C75.7891 23.4 75.3691 23.5133 75.0091 23.74C74.6624 23.9533 74.3891 24.26 74.1891 24.66C74.0024 25.06 73.9091 25.5467 73.9091 26.12C73.9091 26.6933 74.0091 27.1867 74.2091 27.6C74.4224 28 74.7157 28.3133 75.0891 28.54C75.4757 28.7533 75.9291 28.86 76.4491 28.86C76.9291 28.86 77.3624 28.78 77.7491 28.62C78.1357 28.4467 78.4757 28.1933 78.7691 27.86L80.4491 29.54C79.9691 30.1 79.3891 30.52 78.7091 30.8C78.0291 31.08 77.2824 31.22 76.4691 31.22ZM86.4861 31.2C85.5928 31.2 84.7928 30.98 84.0861 30.54C83.3928 30.1 82.8394 29.5 82.4261 28.74C82.0261 27.98 81.8261 27.1133 81.8261 26.14C81.8261 25.1667 82.0261 24.3 82.4261 23.54C82.8394 22.78 83.3928 22.18 84.0861 21.74C84.7928 21.3 85.5928 21.08 86.4861 21.08C87.1394 21.08 87.7261 21.2067 88.2461 21.46C88.7794 21.7133 89.2128 22.0667 89.5461 22.52C89.8794 22.96 90.0661 23.4667 90.1061 24.04V28.24C90.0661 28.8133 89.8794 29.3267 89.5461 29.78C89.2261 30.22 88.7994 30.5667 88.2661 30.82C87.7328 31.0733 87.1394 31.2 86.4861 31.2ZM87.1061 28.44C87.7594 28.44 88.2861 28.2267 88.6861 27.8C89.0861 27.36 89.2861 26.8067 89.2861 26.14C89.2861 25.6867 89.1928 25.2867 89.0061 24.94C88.8328 24.5933 88.5794 24.3267 88.2461 24.14C87.9261 23.94 87.5528 23.84 87.1261 23.84C86.6994 23.84 86.3194 23.94 85.9861 24.14C85.6661 24.3267 85.4061 24.5933 85.2061 24.94C85.0194 25.2867 84.9261 25.6867 84.9261 26.14C84.9261 26.58 85.0194 26.9733 85.2061 27.32C85.3928 27.6667 85.6528 27.94 85.9861 28.14C86.3194 28.34 86.6928 28.44 87.1061 28.44ZM89.1661 31V28.38L89.6261 26.02L89.1661 23.66V21.28H92.1661V31H89.1661ZM95.5006 31V17.26H98.5606V31H95.5006ZM93.3006 23.88V21.28H100.761V23.88H93.3006ZM108.329 31V25.46C108.329 24.9533 108.169 24.5467 107.849 24.24C107.542 23.92 107.149 23.76 106.669 23.76C106.336 23.76 106.042 23.8333 105.789 23.98C105.536 24.1133 105.336 24.3133 105.189 24.58C105.042 24.8333 104.969 25.1267 104.969 25.46L103.789 24.88C103.789 24.12 103.949 23.4533 104.269 22.88C104.589 22.3067 105.036 21.8667 105.609 21.56C106.182 21.24 106.842 21.08 107.589 21.08C108.349 21.08 109.016 21.24 109.589 21.56C110.162 21.8667 110.602 22.3 110.909 22.86C111.229 23.4067 111.389 24.0467 111.389 24.78V31H108.329ZM101.909 31V16.48H104.969V31H101.909ZM117.954 31.22C116.901 31.22 115.961 31.0067 115.134 30.58C114.321 30.14 113.681 29.5333 113.214 28.76C112.748 27.9867 112.514 27.1133 112.514 26.14C112.514 25.1667 112.741 24.3 113.194 23.54C113.661 22.7667 114.288 22.16 115.074 21.72C115.861 21.28 116.748 21.06 117.734 21.06C118.694 21.06 119.541 21.2667 120.274 21.68C121.008 22.0933 121.581 22.6667 121.994 23.4C122.421 24.1333 122.634 24.9733 122.634 25.92C122.634 26.0933 122.621 26.28 122.594 26.48C122.581 26.6667 122.548 26.8867 122.494 27.14L114.114 27.16V25.06L121.194 25.04L119.874 25.92C119.861 25.36 119.774 24.9 119.614 24.54C119.454 24.1667 119.214 23.8867 118.894 23.7C118.588 23.5 118.208 23.4 117.754 23.4C117.274 23.4 116.854 23.5133 116.494 23.74C116.148 23.9533 115.874 24.26 115.674 24.66C115.488 25.06 115.394 25.5467 115.394 26.12C115.394 26.6933 115.494 27.1867 115.694 27.6C115.908 28 116.201 28.3133 116.574 28.54C116.961 28.7533 117.414 28.86 117.934 28.86C118.414 28.86 118.848 28.78 119.234 28.62C119.621 28.4467 119.961 28.1933 120.254 27.86L121.934 29.54C121.454 30.1 120.874 30.52 120.194 30.8C119.514 31.08 118.768 31.22 117.954 31.22ZM123.911 31V21.28H126.971V31H123.911ZM126.971 25.66L125.691 24.66C125.945 23.5267 126.371 22.6467 126.971 22.02C127.571 21.3933 128.405 21.08 129.471 21.08C129.938 21.08 130.345 21.1533 130.691 21.3C131.051 21.4333 131.365 21.6467 131.631 21.94L129.811 24.24C129.678 24.0933 129.511 23.98 129.311 23.9C129.111 23.82 128.885 23.78 128.631 23.78C128.125 23.78 127.718 23.94 127.411 24.26C127.118 24.5667 126.971 25.0333 126.971 25.66ZM135.168 31.04L131.168 21.28H134.468L137.008 29.02H135.788L138.388 21.28H141.688L137.528 31.04H135.168ZM132.668 35.1L135.588 28.8L137.528 31.04L135.808 35.1H132.668Z" fill="#EF6820"/>
</svg>
