<svg width="156" height="60" viewBox="0 0 156 60" fill="none" xmlns="http://www.w3.org/2000/svg">
<rect width="155.907" height="60" rx="8" fill="#272A2E"/>
<g clip-path="url(#clip0_1984_4721)">
<path d="M38.0553 34.8905C41.8462 32.8089 44.72 31.2228 44.9678 31.0995C45.7602 30.6781 46.5785 29.5628 44.9678 28.6965C44.4477 28.424 41.6477 26.8873 38.0553 24.9055L33.0752 29.935L38.0553 34.8903V34.8905Z" fill="#FFD900"/>
<path d="M33.0759 29.9351L17.2188 45.9167C17.591 45.966 18.0112 45.8673 18.5066 45.595C19.5467 45.0256 30.5729 39.0041 38.056 34.8917L33.0759 29.9351Z" fill="#F43249"/>
<path d="M33.0752 29.9351L38.0553 24.9303C38.0553 24.9303 19.6212 14.8701 18.5058 14.2762C18.0856 14.0273 17.6147 13.9534 17.1934 14.0273L33.0752 29.9351Z" fill="#00EE76"/>
<path d="M33.0759 29.9351L17.1941 14.0273C16.5496 14.1764 16.0049 14.7458 16.0049 15.9104V44.0336C16.0049 45.0996 16.4264 45.8673 17.2188 45.9414L33.0759 29.9351Z" fill="#00D3FF"/>
</g>
<path d="M62.6583 24.12C62.0743 24.12 61.5263 24.012 61.0143 23.796C60.5103 23.572 60.0663 23.264 59.6823 22.872C59.3063 22.48 59.0103 22.024 58.7943 21.504C58.5783 20.984 58.4703 20.424 58.4703 19.824C58.4703 19.224 58.5783 18.668 58.7943 18.156C59.0103 17.636 59.3103 17.18 59.6943 16.788C60.0783 16.396 60.5263 16.092 61.0383 15.876C61.5583 15.66 62.1223 15.552 62.7303 15.552C63.3943 15.552 64.0063 15.68 64.5663 15.936C65.1263 16.192 65.5943 16.56 65.9703 17.04L65.1903 17.82C64.9263 17.436 64.5783 17.144 64.1463 16.944C63.7143 16.736 63.2423 16.632 62.7303 16.632C62.1223 16.632 61.5823 16.768 61.1103 17.04C60.6463 17.312 60.2823 17.688 60.0183 18.168C59.7623 18.648 59.6343 19.2 59.6343 19.824C59.6343 20.456 59.7663 21.012 60.0303 21.492C60.2943 21.972 60.6503 22.348 61.0983 22.62C61.5463 22.892 62.0583 23.028 62.6343 23.028C63.2183 23.028 63.7223 22.916 64.1463 22.692C64.5783 22.468 64.9103 22.14 65.1423 21.708C65.3743 21.268 65.4903 20.732 65.4903 20.1L66.1743 20.592H62.5743V19.56H66.6543V19.728C66.6543 20.696 66.4823 21.508 66.1383 22.164C65.8023 22.812 65.3303 23.3 64.7223 23.628C64.1223 23.956 63.4343 24.12 62.6583 24.12ZM70.6195 24.12C70.0515 24.12 69.5395 23.992 69.0835 23.736C68.6275 23.472 68.2675 23.116 68.0035 22.668C67.7395 22.22 67.6075 21.712 67.6075 21.144C67.6075 20.584 67.7355 20.08 67.9915 19.632C68.2555 19.184 68.6075 18.832 69.0475 18.576C69.4955 18.312 69.9955 18.18 70.5475 18.18C71.0755 18.18 71.5395 18.3 71.9395 18.54C72.3475 18.78 72.6635 19.112 72.8875 19.536C73.1195 19.96 73.2355 20.44 73.2355 20.976C73.2355 21.056 73.2315 21.144 73.2235 21.24C73.2155 21.328 73.1995 21.432 73.1755 21.552H68.3635V20.652H72.5995L72.2035 21C72.2035 20.616 72.1355 20.292 71.9995 20.028C71.8635 19.756 71.6715 19.548 71.4235 19.404C71.1755 19.252 70.8755 19.176 70.5235 19.176C70.1555 19.176 69.8315 19.256 69.5515 19.416C69.2715 19.576 69.0555 19.8 68.9035 20.088C68.7515 20.376 68.6755 20.716 68.6755 21.108C68.6755 21.508 68.7555 21.86 68.9155 22.164C69.0755 22.46 69.3035 22.692 69.5995 22.86C69.8955 23.02 70.2355 23.1 70.6195 23.1C70.9395 23.1 71.2315 23.044 71.4955 22.932C71.7675 22.82 71.9995 22.652 72.1915 22.428L72.8875 23.136C72.6155 23.456 72.2795 23.7 71.8795 23.868C71.4875 24.036 71.0675 24.12 70.6195 24.12ZM75.1133 24V15.912H76.1933V24H75.1133ZM73.7093 19.284V18.3H77.5973V19.284H73.7093ZM81.1634 24V18.3H82.2434V24H81.1634ZM81.7034 17.16C81.5034 17.16 81.3394 17.096 81.2114 16.968C81.0834 16.832 81.0194 16.664 81.0194 16.464C81.0194 16.272 81.0834 16.112 81.2114 15.984C81.3394 15.848 81.5034 15.78 81.7034 15.78C81.9034 15.78 82.0674 15.848 82.1954 15.984C82.3234 16.112 82.3874 16.272 82.3874 16.464C82.3874 16.664 82.3234 16.832 82.1954 16.968C82.0674 17.096 81.9034 17.16 81.7034 17.16ZM84.711 24V15.912H85.791V24H84.711ZM83.307 19.284V18.3H87.195V19.284H83.307ZM93.353 24.12C92.793 24.12 92.289 23.988 91.841 23.724C91.393 23.46 91.037 23.104 90.773 22.656C90.509 22.2 90.377 21.692 90.377 21.132C90.377 20.58 90.509 20.084 90.773 19.644C91.037 19.196 91.393 18.84 91.841 18.576C92.289 18.312 92.793 18.18 93.353 18.18C93.905 18.18 94.405 18.312 94.853 18.576C95.309 18.832 95.669 19.184 95.933 19.632C96.197 20.08 96.329 20.58 96.329 21.132C96.329 21.692 96.197 22.2 95.933 22.656C95.669 23.104 95.309 23.46 94.853 23.724C94.405 23.988 93.905 24.12 93.353 24.12ZM93.353 23.076C93.713 23.076 94.033 22.992 94.313 22.824C94.593 22.656 94.813 22.428 94.973 22.14C95.133 21.844 95.213 21.508 95.213 21.132C95.213 20.764 95.129 20.436 94.961 20.148C94.801 19.86 94.581 19.636 94.301 19.476C94.029 19.308 93.713 19.224 93.353 19.224C92.993 19.224 92.673 19.308 92.393 19.476C92.113 19.636 91.893 19.86 91.733 20.148C91.573 20.436 91.493 20.764 91.493 21.132C91.493 21.508 91.573 21.844 91.733 22.14C91.893 22.428 92.113 22.656 92.393 22.824C92.673 22.992 92.993 23.076 93.353 23.076ZM101.578 24V20.676C101.578 20.244 101.442 19.888 101.17 19.608C100.898 19.328 100.546 19.188 100.114 19.188C99.8259 19.188 99.5699 19.252 99.3459 19.38C99.1219 19.508 98.9459 19.684 98.8179 19.908C98.6899 20.132 98.6259 20.388 98.6259 20.676L98.1819 20.424C98.1819 19.992 98.2779 19.608 98.4699 19.272C98.6619 18.936 98.9299 18.672 99.2739 18.48C99.6179 18.28 100.006 18.18 100.438 18.18C100.87 18.18 101.25 18.288 101.578 18.504C101.914 18.72 102.178 19.004 102.37 19.356C102.562 19.7 102.658 20.068 102.658 20.46V24H101.578ZM97.5459 24V18.3H98.6259V24H97.5459Z" fill="white"/>
<path d="M61.0023 42.302V40.304H63.9363C64.3203 40.304 64.6683 40.226 64.9803 40.07C65.2923 39.914 65.5383 39.692 65.7183 39.404C65.8983 39.104 65.9883 38.744 65.9883 38.324C65.9883 37.916 65.8983 37.562 65.7183 37.262C65.5383 36.962 65.2923 36.734 64.9803 36.578C64.6683 36.422 64.3203 36.344 63.9363 36.344H61.0023V34.346H64.1883C64.9923 34.346 65.7123 34.508 66.3483 34.832C66.9963 35.156 67.5063 35.618 67.8783 36.218C68.2503 36.806 68.4363 37.508 68.4363 38.324C68.4363 39.14 68.2503 39.848 67.8783 40.448C67.5063 41.036 66.9963 41.492 66.3483 41.816C65.7123 42.14 64.9923 42.302 64.1883 42.302H61.0023ZM59.2023 47V34.346H61.6503V47H59.2023ZM70.042 47V33.986H72.4V47H70.042ZM78.1253 47.18C77.3333 47.18 76.6193 46.982 75.9833 46.586C75.3473 46.19 74.8493 45.65 74.4893 44.966C74.1293 44.282 73.9493 43.514 73.9493 42.662C73.9493 41.798 74.1293 41.024 74.4893 40.34C74.8493 39.656 75.3473 39.116 75.9833 38.72C76.6193 38.324 77.3333 38.126 78.1253 38.126C78.7493 38.126 79.3073 38.252 79.7993 38.504C80.2913 38.756 80.6813 39.11 80.9693 39.566C81.2693 40.01 81.4313 40.514 81.4553 41.078V44.21C81.4313 44.786 81.2693 45.296 80.9693 45.74C80.6813 46.184 80.2913 46.538 79.7993 46.802C79.3073 47.054 78.7493 47.18 78.1253 47.18ZM78.5573 45.002C79.2173 45.002 79.7513 44.786 80.1593 44.354C80.5673 43.91 80.7713 43.34 80.7713 42.644C80.7713 42.188 80.6753 41.786 80.4833 41.438C80.3033 41.078 80.0453 40.802 79.7093 40.61C79.3853 40.406 79.0013 40.304 78.5573 40.304C78.1253 40.304 77.7413 40.406 77.4053 40.61C77.0813 40.802 76.8233 41.078 76.6313 41.438C76.4513 41.786 76.3613 42.188 76.3613 42.644C76.3613 43.112 76.4513 43.526 76.6313 43.886C76.8233 44.234 77.0813 44.51 77.4053 44.714C77.7413 44.906 78.1253 45.002 78.5573 45.002ZM80.6453 47V44.66L81.0233 42.536L80.6453 40.448V38.306H82.9853V47H80.6453ZM87.8073 47.072L84.1713 38.306H86.7273L89.1393 45.002H88.2753L90.7773 38.306H93.3513L89.4813 47.054L87.8073 47.072ZM85.3953 50.636L88.0413 45.038L89.4813 47.054L87.8973 50.636H85.3953ZM101.05 47.198C100.558 47.198 100.072 47.132 99.5916 47C99.1236 46.868 98.6916 46.688 98.2956 46.46C97.8996 46.22 97.5576 45.932 97.2696 45.596L98.6736 44.174C98.9736 44.51 99.3216 44.762 99.7176 44.93C100.114 45.098 100.552 45.182 101.032 45.182C101.416 45.182 101.704 45.128 101.896 45.02C102.1 44.912 102.202 44.75 102.202 44.534C102.202 44.294 102.094 44.108 101.878 43.976C101.674 43.844 101.404 43.736 101.068 43.652C100.732 43.556 100.378 43.454 100.006 43.346C99.6456 43.226 99.2976 43.076 98.9616 42.896C98.6256 42.704 98.3496 42.446 98.1336 42.122C97.9296 41.786 97.8276 41.354 97.8276 40.826C97.8276 40.274 97.9596 39.794 98.2236 39.386C98.4996 38.978 98.8896 38.66 99.3936 38.432C99.8976 38.204 100.492 38.09 101.176 38.09C101.896 38.09 102.544 38.216 103.12 38.468C103.708 38.72 104.194 39.098 104.578 39.602L103.156 41.024C102.892 40.7 102.592 40.466 102.256 40.322C101.932 40.178 101.578 40.106 101.194 40.106C100.846 40.106 100.576 40.16 100.384 40.268C100.204 40.376 100.114 40.526 100.114 40.718C100.114 40.934 100.216 41.102 100.42 41.222C100.636 41.342 100.912 41.45 101.248 41.546C101.584 41.63 101.932 41.732 102.292 41.852C102.664 41.96 103.012 42.116 103.336 42.32C103.672 42.524 103.942 42.794 104.146 43.13C104.362 43.466 104.47 43.898 104.47 44.426C104.47 45.278 104.164 45.956 103.552 46.46C102.94 46.952 102.106 47.198 101.05 47.198ZM107.338 47V34.688H109.696V47H107.338ZM105.304 40.376V38.306H111.73V40.376H105.304ZM116.931 47.18C116.055 47.18 115.263 46.982 114.555 46.586C113.859 46.178 113.301 45.632 112.881 44.948C112.473 44.252 112.269 43.478 112.269 42.626C112.269 41.774 112.473 41.012 112.881 40.34C113.289 39.656 113.847 39.116 114.555 38.72C115.263 38.312 116.049 38.108 116.913 38.108C117.801 38.108 118.593 38.312 119.289 38.72C119.997 39.116 120.555 39.656 120.963 40.34C121.371 41.012 121.575 41.774 121.575 42.626C121.575 43.478 121.371 44.252 120.963 44.948C120.555 45.632 119.997 46.178 119.289 46.586C118.593 46.982 117.807 47.18 116.931 47.18ZM116.913 44.984C117.357 44.984 117.747 44.888 118.083 44.696C118.431 44.492 118.695 44.216 118.875 43.868C119.067 43.508 119.163 43.1 119.163 42.644C119.163 42.188 119.067 41.786 118.875 41.438C118.683 41.09 118.419 40.82 118.083 40.628C117.747 40.424 117.357 40.322 116.913 40.322C116.481 40.322 116.097 40.424 115.761 40.628C115.425 40.82 115.161 41.09 114.969 41.438C114.777 41.786 114.681 42.188 114.681 42.644C114.681 43.1 114.777 43.508 114.969 43.868C115.161 44.216 115.425 44.492 115.761 44.696C116.097 44.888 116.481 44.984 116.913 44.984ZM123.093 47V38.306H125.451V47H123.093ZM125.451 42.194L124.533 41.582C124.641 40.514 124.953 39.674 125.469 39.062C125.985 38.438 126.729 38.126 127.701 38.126C128.121 38.126 128.499 38.198 128.835 38.342C129.171 38.474 129.477 38.696 129.753 39.008L128.277 40.7C128.145 40.556 127.983 40.448 127.791 40.376C127.611 40.304 127.401 40.268 127.161 40.268C126.657 40.268 126.243 40.43 125.919 40.754C125.607 41.066 125.451 41.546 125.451 42.194ZM134.493 47.18C133.581 47.18 132.771 46.988 132.063 46.604C131.355 46.208 130.791 45.668 130.371 44.984C129.963 44.3 129.759 43.52 129.759 42.644C129.759 41.78 129.957 41.012 130.353 40.34C130.761 39.656 131.313 39.116 132.009 38.72C132.705 38.312 133.479 38.108 134.331 38.108C135.171 38.108 135.909 38.3 136.545 38.684C137.193 39.056 137.697 39.572 138.057 40.232C138.429 40.88 138.615 41.618 138.615 42.446C138.615 42.602 138.603 42.764 138.579 42.932C138.567 43.088 138.537 43.268 138.489 43.472L131.181 43.49V41.726L137.391 41.708L136.437 42.446C136.413 41.93 136.317 41.498 136.149 41.15C135.993 40.802 135.759 40.538 135.447 40.358C135.147 40.166 134.775 40.07 134.331 40.07C133.863 40.07 133.455 40.178 133.107 40.394C132.759 40.598 132.489 40.892 132.297 41.276C132.117 41.648 132.027 42.092 132.027 42.608C132.027 43.136 132.123 43.598 132.315 43.994C132.519 44.378 132.807 44.678 133.179 44.894C133.551 45.098 133.983 45.2 134.475 45.2C134.919 45.2 135.321 45.128 135.681 44.984C136.041 44.828 136.353 44.6 136.617 44.3L138.003 45.686C137.583 46.178 137.067 46.55 136.455 46.802C135.855 47.054 135.201 47.18 134.493 47.18Z" fill="white"/>
<defs>
<clipPath id="clip0_1984_4721">
<rect width="29.9067" height="32" fill="white" transform="translate(16 14)"/>
</clipPath>
</defs>
</svg>
