<svg width="237" height="48" viewBox="0 0 237 48" fill="none" xmlns="http://www.w3.org/2000/svg">
<path d="M9.596 31.5C9.32048 31.501 9.04786 31.4437 8.796 31.332C7.37072 30.7079 6.15811 29.6822 5.30638 28.3801C4.45466 27.078 4.0007 25.5559 4 24C4.00206 22.2264 4.59241 20.5037 5.67854 19.1016C6.76467 17.6995 8.28523 16.6973 10.002 16.252L10 16C10 9.38201 15.382 4.00001 22 4.00001C24.8341 3.99632 27.5773 5.00022 29.7396 6.83239C31.9018 8.66457 33.3424 11.2057 33.804 14.002C33.892 14.525 33.7686 15.0615 33.4611 15.4936C33.1535 15.9257 32.687 16.2179 32.164 16.306C31.6415 16.3902 31.1069 16.2653 30.6757 15.9584C30.2446 15.6515 29.9515 15.1873 29.86 14.666C29.5531 12.8033 28.5942 11.1103 27.1544 9.88926C25.7147 8.66821 23.8878 7.99861 22 8.00001C20.8117 8.00079 19.6385 8.266 18.5655 8.77642C17.4924 9.28684 16.5464 10.0297 15.796 10.951C15.0456 11.8724 14.5097 12.9492 14.227 14.1034C13.9444 15.2576 13.9222 16.4602 14.162 17.624L14.68 20.164L11.818 19.988C9.794 20 8 21.794 8 24C8 25.59 8.942 27.03 10.4 27.668C10.8208 27.8523 11.1653 28.1759 11.3757 28.5843C11.586 28.9927 11.6494 29.4611 11.555 29.9107C11.4607 30.3603 11.2144 30.7637 10.8577 31.0532C10.5009 31.3426 10.0554 31.5004 9.596 31.5ZM38 14C37.4696 14 36.9609 14.2107 36.5858 14.5858C36.2107 14.9609 36 15.4696 36 16C36 16.5304 36.2107 17.0391 36.5858 17.4142C36.9609 17.7893 37.4696 18 38 18C38.5304 18 39.0391 18.2107 39.4142 18.5858C39.7893 18.9609 40 19.4696 40 20C40 20.5304 39.7893 21.0391 39.4142 21.4142C39.0391 21.7893 38.5304 22 38 22H18.8C18.2696 22 17.7609 22.2107 17.3858 22.5858C17.0107 22.9609 16.8 23.4696 16.8 24C16.8 24.5304 17.0107 25.0391 17.3858 25.4142C17.7609 25.7893 18.2696 26 18.8 26H28C28.5304 26 29.0391 26.2107 29.4142 26.5858C29.7893 26.9609 30 27.4696 30 28C30 28.5304 29.7893 29.0391 29.4142 29.4142C29.0391 29.7893 28.5304 30 28 30H18C14.692 30 12 32.692 12 36C12 39.308 14.692 42 18 42C18.5304 42 19.0391 41.7893 19.4142 41.4142C19.7893 41.0392 20 40.5304 20 40C20 39.4696 19.7893 38.9609 19.4142 38.5858C19.0391 38.2107 18.5304 38 18 38C17.4696 38 16.9609 37.7893 16.5858 37.4142C16.2107 37.0392 16 36.5304 16 36C16 35.4696 16.2107 34.9609 16.5858 34.5858C16.9609 34.2107 17.4696 34 18 34H28C31.308 34 34 31.308 34 28C34 27.294 33.856 26.628 33.63 26H38C41.308 26 44 23.308 44 20C44 16.692 41.308 14 38 14Z" fill="#F05513"/>
<path d="M56.8798 31L52.3398 16.88H55.4598L58.7798 27.74H57.5598L60.7998 16.88H63.2598L66.4998 27.74H65.2998L68.5998 16.88H71.6998L67.1598 31H64.6998L61.4398 20.14H62.5998L59.3398 31H56.8798ZM76.4689 31.22C75.4155 31.22 74.4755 31.0067 73.6489 30.58C72.8355 30.14 72.1955 29.5333 71.7289 28.76C71.2622 27.9867 71.0289 27.1133 71.0289 26.14C71.0289 25.1667 71.2555 24.3 71.7089 23.54C72.1755 22.7667 72.8022 22.16 73.5889 21.72C74.3755 21.28 75.2622 21.06 76.2489 21.06C77.2089 21.06 78.0555 21.2667 78.7889 21.68C79.5222 22.0933 80.0955 22.6667 80.5089 23.4C80.9355 24.1333 81.1489 24.9733 81.1489 25.92C81.1489 26.0933 81.1355 26.28 81.1089 26.48C81.0955 26.6667 81.0622 26.8867 81.0089 27.14L72.6289 27.16V25.06L79.7089 25.04L78.3889 25.92C78.3755 25.36 78.2889 24.9 78.1289 24.54C77.9689 24.1667 77.7289 23.8867 77.4089 23.7C77.1022 23.5 76.7222 23.4 76.2689 23.4C75.7889 23.4 75.3689 23.5133 75.0089 23.74C74.6622 23.9533 74.3889 24.26 74.1889 24.66C74.0022 25.06 73.9089 25.5467 73.9089 26.12C73.9089 26.6933 74.0089 27.1867 74.2089 27.6C74.4222 28 74.7155 28.3133 75.0889 28.54C75.4755 28.7533 75.9289 28.86 76.4489 28.86C76.9289 28.86 77.3622 28.78 77.7489 28.62C78.1355 28.4467 78.4755 28.1933 78.7689 27.86L80.4489 29.54C79.9689 30.1 79.3889 30.52 78.7089 30.8C78.0289 31.08 77.2822 31.22 76.4689 31.22ZM86.4859 31.2C85.5926 31.2 84.7926 30.98 84.0859 30.54C83.3926 30.1 82.8392 29.5 82.4259 28.74C82.0259 27.98 81.8259 27.1133 81.8259 26.14C81.8259 25.1667 82.0259 24.3 82.4259 23.54C82.8392 22.78 83.3926 22.18 84.0859 21.74C84.7926 21.3 85.5926 21.08 86.4859 21.08C87.1392 21.08 87.7259 21.2067 88.2459 21.46C88.7792 21.7133 89.2126 22.0667 89.5459 22.52C89.8792 22.96 90.0659 23.4667 90.1059 24.04V28.24C90.0659 28.8133 89.8792 29.3267 89.5459 29.78C89.2259 30.22 88.7992 30.5667 88.2659 30.82C87.7326 31.0733 87.1392 31.2 86.4859 31.2ZM87.1059 28.44C87.7592 28.44 88.2859 28.2267 88.6859 27.8C89.0859 27.36 89.2859 26.8067 89.2859 26.14C89.2859 25.6867 89.1926 25.2867 89.0059 24.94C88.8326 24.5933 88.5792 24.3267 88.2459 24.14C87.9259 23.94 87.5526 23.84 87.1259 23.84C86.6992 23.84 86.3192 23.94 85.9859 24.14C85.6659 24.3267 85.4059 24.5933 85.2059 24.94C85.0192 25.2867 84.9259 25.6867 84.9259 26.14C84.9259 26.58 85.0192 26.9733 85.2059 27.32C85.3926 27.6667 85.6526 27.94 85.9859 28.14C86.3192 28.34 86.6926 28.44 87.1059 28.44ZM89.1659 31V28.38L89.6259 26.02L89.1659 23.66V21.28H92.1659V31H89.1659ZM95.5004 31V17.26H98.5604V31H95.5004ZM93.3004 23.88V21.28H100.761V23.88H93.3004ZM108.329 31V25.46C108.329 24.9533 108.169 24.5467 107.849 24.24C107.542 23.92 107.149 23.76 106.669 23.76C106.336 23.76 106.042 23.8333 105.789 23.98C105.536 24.1133 105.336 24.3133 105.189 24.58C105.042 24.8333 104.969 25.1267 104.969 25.46L103.789 24.88C103.789 24.12 103.949 23.4533 104.269 22.88C104.589 22.3067 105.036 21.8667 105.609 21.56C106.182 21.24 106.842 21.08 107.589 21.08C108.349 21.08 109.016 21.24 109.589 21.56C110.162 21.8667 110.602 22.3 110.909 22.86C111.229 23.4067 111.389 24.0467 111.389 24.78V31H108.329ZM101.909 31V16.48H104.969V31H101.909ZM117.954 31.22C116.901 31.22 115.961 31.0067 115.134 30.58C114.321 30.14 113.681 29.5333 113.214 28.76C112.748 27.9867 112.514 27.1133 112.514 26.14C112.514 25.1667 112.741 24.3 113.194 23.54C113.661 22.7667 114.288 22.16 115.074 21.72C115.861 21.28 116.748 21.06 117.734 21.06C118.694 21.06 119.541 21.2667 120.274 21.68C121.008 22.0933 121.581 22.6667 121.994 23.4C122.421 24.1333 122.634 24.9733 122.634 25.92C122.634 26.0933 122.621 26.28 122.594 26.48C122.581 26.6667 122.548 26.8867 122.494 27.14L114.114 27.16V25.06L121.194 25.04L119.874 25.92C119.861 25.36 119.774 24.9 119.614 24.54C119.454 24.1667 119.214 23.8867 118.894 23.7C118.588 23.5 118.208 23.4 117.754 23.4C117.274 23.4 116.854 23.5133 116.494 23.74C116.148 23.9533 115.874 24.26 115.674 24.66C115.488 25.06 115.394 25.5467 115.394 26.12C115.394 26.6933 115.494 27.1867 115.694 27.6C115.908 28 116.201 28.3133 116.574 28.54C116.961 28.7533 117.414 28.86 117.934 28.86C118.414 28.86 118.848 28.78 119.234 28.62C119.621 28.4467 119.961 28.1933 120.254 27.86L121.934 29.54C121.454 30.1 120.874 30.52 120.194 30.8C119.514 31.08 118.768 31.22 117.954 31.22ZM123.911 31V21.28H126.971V31H123.911ZM126.971 25.66L125.691 24.66C125.945 23.5267 126.371 22.6467 126.971 22.02C127.571 21.3933 128.405 21.08 129.471 21.08C129.938 21.08 130.345 21.1533 130.691 21.3C131.051 21.4333 131.365 21.6467 131.631 21.94L129.811 24.24C129.678 24.0933 129.511 23.98 129.311 23.9C129.111 23.82 128.885 23.78 128.631 23.78C128.125 23.78 127.718 23.94 127.411 24.26C127.118 24.5667 126.971 25.0333 126.971 25.66ZM135.168 31.04L131.168 21.28H134.468L137.008 29.02H135.788L138.388 21.28H141.688L137.528 31.04H135.168ZM132.668 35.1L135.588 28.8L137.528 31.04L135.808 35.1H132.668Z" fill="#F05513"/>
<path d="M150.439 32.0087V29.7887H154.099C154.752 29.7887 155.259 29.5887 155.619 29.1887C155.992 28.7887 156.179 28.3154 156.179 27.7687C156.179 27.3954 156.099 27.0554 155.939 26.7487C155.779 26.442 155.539 26.202 155.219 26.0287C154.912 25.842 154.539 25.7487 154.099 25.7487H150.439V23.5487H153.799C154.359 23.5487 154.806 23.4087 155.139 23.1287C155.486 22.8487 155.659 22.4287 155.659 21.8687C155.659 21.2954 155.486 20.8687 155.139 20.5887C154.806 20.3087 154.359 20.1687 153.799 20.1687H150.439V17.9487H154.119C155.052 17.9487 155.832 18.122 156.459 18.4687C157.099 18.802 157.579 19.2487 157.899 19.8087C158.219 20.3554 158.379 20.9554 158.379 21.6087C158.379 22.4087 158.132 23.102 157.639 23.6887C157.159 24.262 156.452 24.6887 155.519 24.9687L155.639 24.0887C156.679 24.382 157.479 24.8687 158.039 25.5487C158.612 26.2154 158.899 27.022 158.899 27.9687C158.899 28.7154 158.712 29.3954 158.339 30.0087C157.979 30.6087 157.446 31.0954 156.739 31.4687C156.046 31.8287 155.199 32.0087 154.199 32.0087H150.439ZM148.439 32.0087V17.9487H151.139V32.0087H148.439ZM166.396 32.2087C165.29 32.2087 164.303 31.9687 163.436 31.4887C162.583 30.9954 161.91 30.322 161.416 29.4687C160.923 28.6154 160.676 27.6487 160.676 26.5687V17.9487H163.396V26.6487C163.396 27.2754 163.523 27.8154 163.776 28.2687C164.043 28.722 164.403 29.0754 164.856 29.3287C165.323 29.5687 165.836 29.6887 166.396 29.6887C166.97 29.6887 167.476 29.5687 167.916 29.3287C168.356 29.0754 168.703 28.722 168.956 28.2687C169.223 27.8154 169.356 27.282 169.356 26.6687V17.9487H172.096V26.5887C172.096 27.6687 171.85 28.6354 171.356 29.4887C170.863 30.3287 170.19 30.9954 169.336 31.4887C168.496 31.9687 167.516 32.2087 166.396 32.2087ZM178.506 32.2087C177.372 32.2087 176.399 32.0154 175.586 31.6287C174.786 31.242 174.059 30.662 173.406 29.8887L175.206 28.0887C175.619 28.6354 176.099 29.062 176.646 29.3687C177.192 29.662 177.859 29.8087 178.646 29.8087C179.352 29.8087 179.912 29.6687 180.326 29.3887C180.752 29.1087 180.966 28.722 180.966 28.2287C180.966 27.802 180.846 27.4554 180.606 27.1887C180.366 26.922 180.046 26.6954 179.646 26.5087C179.259 26.322 178.826 26.1554 178.346 26.0087C177.879 25.8487 177.406 25.6687 176.926 25.4687C176.459 25.2687 176.026 25.022 175.626 24.7287C175.239 24.422 174.926 24.0354 174.686 23.5687C174.446 23.0887 174.326 22.4887 174.326 21.7687C174.326 20.9154 174.532 20.1887 174.946 19.5887C175.359 18.9887 175.926 18.5287 176.646 18.2087C177.366 17.8887 178.179 17.7287 179.086 17.7287C180.046 17.7287 180.912 17.9087 181.686 18.2687C182.459 18.6287 183.092 19.0954 183.586 19.6687L181.786 21.4687C181.372 21.0154 180.946 20.682 180.506 20.4687C180.079 20.2554 179.592 20.1487 179.046 20.1487C178.419 20.1487 177.926 20.2687 177.566 20.5087C177.206 20.7487 177.026 21.0954 177.026 21.5487C177.026 21.9354 177.146 22.2487 177.386 22.4887C177.626 22.7287 177.939 22.9354 178.326 23.1087C178.726 23.282 179.159 23.4487 179.626 23.6087C180.106 23.7687 180.579 23.9487 181.046 24.1487C181.526 24.3487 181.959 24.6087 182.346 24.9287C182.746 25.2487 183.066 25.662 183.306 26.1687C183.546 26.662 183.666 27.2754 183.666 28.0087C183.666 29.3154 183.206 30.342 182.286 31.0887C181.366 31.8354 180.106 32.2087 178.506 32.2087ZM185.612 32.0087V17.9487H188.332V32.0087H185.612ZM191.018 32.0087V17.9487H192.918L193.738 20.6687V32.0087H191.018ZM200.738 32.0087L192.398 21.2087L192.918 17.9487L201.258 28.7487L200.738 32.0087ZM200.738 32.0087L199.958 29.3687V17.9487H202.698V32.0087H200.738ZM205.349 32.0087V17.9487H208.069V32.0087H205.349ZM207.349 32.0087V29.6087H215.129V32.0087H207.349ZM207.349 25.9887V23.6687H214.429V25.9887H207.349ZM207.349 20.3487V17.9487H215.029V20.3487H207.349ZM220.909 32.2087C219.776 32.2087 218.802 32.0154 217.989 31.6287C217.189 31.242 216.462 30.662 215.809 29.8887L217.609 28.0887C218.022 28.6354 218.502 29.062 219.049 29.3687C219.596 29.662 220.262 29.8087 221.049 29.8087C221.756 29.8087 222.316 29.6687 222.729 29.3887C223.156 29.1087 223.369 28.722 223.369 28.2287C223.369 27.802 223.249 27.4554 223.009 27.1887C222.769 26.922 222.449 26.6954 222.049 26.5087C221.662 26.322 221.229 26.1554 220.749 26.0087C220.282 25.8487 219.809 25.6687 219.329 25.4687C218.862 25.2687 218.429 25.022 218.029 24.7287C217.642 24.422 217.329 24.0354 217.089 23.5687C216.849 23.0887 216.729 22.4887 216.729 21.7687C216.729 20.9154 216.936 20.1887 217.349 19.5887C217.762 18.9887 218.329 18.5287 219.049 18.2087C219.769 17.8887 220.582 17.7287 221.489 17.7287C222.449 17.7287 223.316 17.9087 224.089 18.2687C224.862 18.6287 225.496 19.0954 225.989 19.6687L224.189 21.4687C223.776 21.0154 223.349 20.682 222.909 20.4687C222.482 20.2554 221.996 20.1487 221.449 20.1487C220.822 20.1487 220.329 20.2687 219.969 20.5087C219.609 20.7487 219.429 21.0954 219.429 21.5487C219.429 21.9354 219.549 22.2487 219.789 22.4887C220.029 22.7287 220.342 22.9354 220.729 23.1087C221.129 23.282 221.562 23.4487 222.029 23.6087C222.509 23.7687 222.982 23.9487 223.449 24.1487C223.929 24.3487 224.362 24.6087 224.749 24.9287C225.149 25.2487 225.469 25.662 225.709 26.1687C225.949 26.662 226.069 27.2754 226.069 28.0087C226.069 29.3154 225.609 30.342 224.689 31.0887C223.769 31.8354 222.509 32.2087 220.909 32.2087ZM231.744 32.2087C230.611 32.2087 229.637 32.0154 228.824 31.6287C228.024 31.242 227.297 30.662 226.644 29.8887L228.444 28.0887C228.857 28.6354 229.337 29.062 229.884 29.3687C230.431 29.662 231.097 29.8087 231.884 29.8087C232.591 29.8087 233.151 29.6687 233.564 29.3887C233.991 29.1087 234.204 28.722 234.204 28.2287C234.204 27.802 234.084 27.4554 233.844 27.1887C233.604 26.922 233.284 26.6954 232.884 26.5087C232.497 26.322 232.064 26.1554 231.584 26.0087C231.117 25.8487 230.644 25.6687 230.164 25.4687C229.697 25.2687 229.264 25.022 228.864 24.7287C228.477 24.422 228.164 24.0354 227.924 23.5687C227.684 23.0887 227.564 22.4887 227.564 21.7687C227.564 20.9154 227.771 20.1887 228.184 19.5887C228.597 18.9887 229.164 18.5287 229.884 18.2087C230.604 17.8887 231.417 17.7287 232.324 17.7287C233.284 17.7287 234.151 17.9087 234.924 18.2687C235.697 18.6287 236.331 19.0954 236.824 19.6687L235.024 21.4687C234.611 21.0154 234.184 20.682 233.744 20.4687C233.317 20.2554 232.831 20.1487 232.284 20.1487C231.657 20.1487 231.164 20.2687 230.804 20.5087C230.444 20.7487 230.264 21.0954 230.264 21.5487C230.264 21.9354 230.384 22.2487 230.624 22.4887C230.864 22.7287 231.177 22.9354 231.564 23.1087C231.964 23.282 232.397 23.4487 232.864 23.6087C233.344 23.7687 233.817 23.9487 234.284 24.1487C234.764 24.3487 235.197 24.6087 235.584 24.9287C235.984 25.2487 236.304 25.662 236.544 26.1687C236.784 26.662 236.904 27.2754 236.904 28.0087C236.904 29.3154 236.444 30.342 235.524 31.0887C234.604 31.8354 233.344 32.2087 231.744 32.2087Z" fill="white"/>
</svg>
