<svg width="33" height="28" viewBox="0 0 33 28" fill="none" xmlns="http://www.w3.org/2000/svg">
<g filter="url(#filter0_di_4788_52705)">
<path d="M27.657 7.99999C27.6634 7.8897 27.6666 7.77856 27.6666 7.66666C27.6666 4.53705 25.1296 2 22 2C20.494 2 19.1253 2.58746 18.1104 3.54572C17.597 3.40721 17.0571 3.33333 16.5 3.33333C14.4849 3.33333 12.6955 4.29989 11.5702 5.79469C11.2272 5.71102 10.8688 5.66666 10.5 5.66666C8.01471 5.66666 6 7.68138 6 10.1667C6 10.1782 6.00004 10.1898 6.00012 10.2014C6.00004 10.2095 6 10.2176 6 10.2258C6 13.2307 8.43595 15.6667 11.4409 15.6667H20C24.2342 15.6667 27.6666 12.2342 27.6666 7.99999H27.657Z" fill="white"/>
<path d="M27.657 7.99999C27.6634 7.8897 27.6666 7.77856 27.6666 7.66666C27.6666 4.53705 25.1296 2 22 2C20.494 2 19.1253 2.58746 18.1104 3.54572C17.597 3.40721 17.0571 3.33333 16.5 3.33333C14.4849 3.33333 12.6955 4.29989 11.5702 5.79469C11.2272 5.71102 10.8688 5.66666 10.5 5.66666C8.01471 5.66666 6 7.68138 6 10.1667C6 10.1782 6.00004 10.1898 6.00012 10.2014C6.00004 10.2095 6 10.2176 6 10.2258C6 13.2307 8.43595 15.6667 11.4409 15.6667H20C24.2342 15.6667 27.6666 12.2342 27.6666 7.99999H27.657Z" fill="url(#paint0_radial_4788_52705)" fill-opacity="0.2"/>
</g>
<g filter="url(#filter1_dii_4788_52705)">
<path d="M19.5908 19.1415C19.5908 18.511 20.1019 18 20.7323 18H21.5884V18.8561C21.5884 19.4865 21.0773 19.9975 20.4469 19.9975C19.9741 19.9975 19.5908 19.6143 19.5908 19.1415Z" fill="#379ADC"/>
</g>
<g filter="url(#filter2_dii_4788_52705)">
<path d="M15.5957 21.9356C15.5957 21.3052 16.1068 20.7942 16.7372 20.7942H17.5933V21.6503C17.5933 22.2807 17.0822 22.7917 16.4518 22.7917C15.979 22.7917 15.5957 22.4085 15.5957 21.9356Z" fill="#379ADC"/>
</g>
<g filter="url(#filter3_dii_4788_52705)">
<path d="M12 19.1415C12 18.511 12.511 18 13.1415 18H13.9975V18.8561C13.9975 19.4865 13.4865 19.9975 12.8561 19.9975C12.3833 19.9975 12 19.6143 12 19.1415Z" fill="#379ADC"/>
</g>
<defs>
<filter id="filter0_di_4788_52705" x="0.666673" y="2.38419e-06" width="32.3336" height="24.3334" filterUnits="userSpaceOnUse" color-interpolation-filters="sRGB">
<feFlood flood-opacity="0" result="BackgroundImageFix"/>
<feColorMatrix in="SourceAlpha" type="matrix" values="0 0 0 0 0 0 0 0 0 0 0 0 0 0 0 0 0 0 127 0" result="hardAlpha"/>
<feOffset dy="3.33333"/>
<feGaussianBlur stdDeviation="2.66666"/>
<feComposite in2="hardAlpha" operator="out"/>
<feColorMatrix type="matrix" values="0 0 0 0 0.301961 0 0 0 0 0.368627 0 0 0 0 0.435294 0 0 0 0.08 0"/>
<feBlend mode="normal" in2="BackgroundImageFix" result="effect1_dropShadow_4788_52705"/>
<feBlend mode="normal" in="SourceGraphic" in2="effect1_dropShadow_4788_52705" result="shape"/>
<feColorMatrix in="SourceAlpha" type="matrix" values="0 0 0 0 0 0 0 0 0 0 0 0 0 0 0 0 0 0 127 0" result="hardAlpha"/>
<feOffset/>
<feGaussianBlur stdDeviation="0.999999"/>
<feComposite in2="hardAlpha" operator="arithmetic" k2="-1" k3="1"/>
<feColorMatrix type="matrix" values="0 0 0 0 0.301961 0 0 0 0 0.368627 0 0 0 0 0.435294 0 0 0 0.08 0"/>
<feBlend mode="normal" in2="shape" result="effect2_innerShadow_4788_52705"/>
</filter>
<filter id="filter1_dii_4788_52705" x="16.3947" y="16.402" width="8.38923" height="8.38972" filterUnits="userSpaceOnUse" color-interpolation-filters="sRGB">
<feFlood flood-opacity="0" result="BackgroundImageFix"/>
<feColorMatrix in="SourceAlpha" type="matrix" values="0 0 0 0 0 0 0 0 0 0 0 0 0 0 0 0 0 0 127 0" result="hardAlpha"/>
<feOffset dy="1.59804"/>
<feGaussianBlur stdDeviation="1.59804"/>
<feComposite in2="hardAlpha" operator="out"/>
<feColorMatrix type="matrix" values="0 0 0 0 0.282353 0 0 0 0 0.517647 0 0 0 0 0.933333 0 0 0 0.2 0"/>
<feBlend mode="normal" in2="BackgroundImageFix" result="effect1_dropShadow_4788_52705"/>
<feBlend mode="normal" in="SourceGraphic" in2="effect1_dropShadow_4788_52705" result="shape"/>
<feColorMatrix in="SourceAlpha" type="matrix" values="0 0 0 0 0 0 0 0 0 0 0 0 0 0 0 0 0 0 127 0" result="hardAlpha"/>
<feOffset/>
<feGaussianBlur stdDeviation="0.39951"/>
<feComposite in2="hardAlpha" operator="arithmetic" k2="-1" k3="1"/>
<feColorMatrix type="matrix" values="0 0 0 0 0 0 0 0 0 0 0 0 0 0 0 0 0 0 0.25 0"/>
<feBlend mode="normal" in2="shape" result="effect2_innerShadow_4788_52705"/>
<feColorMatrix in="SourceAlpha" type="matrix" values="0 0 0 0 0 0 0 0 0 0 0 0 0 0 0 0 0 0 127 0" result="hardAlpha"/>
<feOffset dy="-0.39951"/>
<feGaussianBlur stdDeviation="0.39951"/>
<feComposite in2="hardAlpha" operator="arithmetic" k2="-1" k3="1"/>
<feColorMatrix type="matrix" values="0 0 0 0 0 0 0 0 0 0 0 0 0 0 0 0 0 0 0.25 0"/>
<feBlend mode="normal" in2="effect2_innerShadow_4788_52705" result="effect3_innerShadow_4788_52705"/>
</filter>
<filter id="filter2_dii_4788_52705" x="12.3996" y="19.1962" width="8.38923" height="8.38972" filterUnits="userSpaceOnUse" color-interpolation-filters="sRGB">
<feFlood flood-opacity="0" result="BackgroundImageFix"/>
<feColorMatrix in="SourceAlpha" type="matrix" values="0 0 0 0 0 0 0 0 0 0 0 0 0 0 0 0 0 0 127 0" result="hardAlpha"/>
<feOffset dy="1.59804"/>
<feGaussianBlur stdDeviation="1.59804"/>
<feComposite in2="hardAlpha" operator="out"/>
<feColorMatrix type="matrix" values="0 0 0 0 0.282353 0 0 0 0 0.517647 0 0 0 0 0.933333 0 0 0 0.2 0"/>
<feBlend mode="normal" in2="BackgroundImageFix" result="effect1_dropShadow_4788_52705"/>
<feBlend mode="normal" in="SourceGraphic" in2="effect1_dropShadow_4788_52705" result="shape"/>
<feColorMatrix in="SourceAlpha" type="matrix" values="0 0 0 0 0 0 0 0 0 0 0 0 0 0 0 0 0 0 127 0" result="hardAlpha"/>
<feOffset/>
<feGaussianBlur stdDeviation="0.39951"/>
<feComposite in2="hardAlpha" operator="arithmetic" k2="-1" k3="1"/>
<feColorMatrix type="matrix" values="0 0 0 0 0 0 0 0 0 0 0 0 0 0 0 0 0 0 0.25 0"/>
<feBlend mode="normal" in2="shape" result="effect2_innerShadow_4788_52705"/>
<feColorMatrix in="SourceAlpha" type="matrix" values="0 0 0 0 0 0 0 0 0 0 0 0 0 0 0 0 0 0 127 0" result="hardAlpha"/>
<feOffset dy="-0.39951"/>
<feGaussianBlur stdDeviation="0.39951"/>
<feComposite in2="hardAlpha" operator="arithmetic" k2="-1" k3="1"/>
<feColorMatrix type="matrix" values="0 0 0 0 0 0 0 0 0 0 0 0 0 0 0 0 0 0 0.25 0"/>
<feBlend mode="normal" in2="effect2_innerShadow_4788_52705" result="effect3_innerShadow_4788_52705"/>
</filter>
<filter id="filter3_dii_4788_52705" x="8.80392" y="16.402" width="8.38923" height="8.38972" filterUnits="userSpaceOnUse" color-interpolation-filters="sRGB">
<feFlood flood-opacity="0" result="BackgroundImageFix"/>
<feColorMatrix in="SourceAlpha" type="matrix" values="0 0 0 0 0 0 0 0 0 0 0 0 0 0 0 0 0 0 127 0" result="hardAlpha"/>
<feOffset dy="1.59804"/>
<feGaussianBlur stdDeviation="1.59804"/>
<feComposite in2="hardAlpha" operator="out"/>
<feColorMatrix type="matrix" values="0 0 0 0 0.282353 0 0 0 0 0.517647 0 0 0 0 0.933333 0 0 0 0.2 0"/>
<feBlend mode="normal" in2="BackgroundImageFix" result="effect1_dropShadow_4788_52705"/>
<feBlend mode="normal" in="SourceGraphic" in2="effect1_dropShadow_4788_52705" result="shape"/>
<feColorMatrix in="SourceAlpha" type="matrix" values="0 0 0 0 0 0 0 0 0 0 0 0 0 0 0 0 0 0 127 0" result="hardAlpha"/>
<feOffset/>
<feGaussianBlur stdDeviation="0.39951"/>
<feComposite in2="hardAlpha" operator="arithmetic" k2="-1" k3="1"/>
<feColorMatrix type="matrix" values="0 0 0 0 0 0 0 0 0 0 0 0 0 0 0 0 0 0 0.25 0"/>
<feBlend mode="normal" in2="shape" result="effect2_innerShadow_4788_52705"/>
<feColorMatrix in="SourceAlpha" type="matrix" values="0 0 0 0 0 0 0 0 0 0 0 0 0 0 0 0 0 0 127 0" result="hardAlpha"/>
<feOffset dy="-0.39951"/>
<feGaussianBlur stdDeviation="0.39951"/>
<feComposite in2="hardAlpha" operator="arithmetic" k2="-1" k3="1"/>
<feColorMatrix type="matrix" values="0 0 0 0 0 0 0 0 0 0 0 0 0 0 0 0 0 0 0.25 0"/>
<feBlend mode="normal" in2="effect2_innerShadow_4788_52705" result="effect3_innerShadow_4788_52705"/>
</filter>
<radialGradient id="paint0_radial_4788_52705" cx="0" cy="0" r="1" gradientUnits="userSpaceOnUse" gradientTransform="translate(21.1667 3.33333) rotate(121.827) scale(17.066 27.0559)">
<stop stop-opacity="0"/>
<stop offset="1" stop-color="#4D5E6F"/>
</radialGradient>
</defs>
</svg>
