<svg width="40" height="40" viewBox="0 0 40 40" fill="none" xmlns="http://www.w3.org/2000/svg">
<g clip-path="url(#clip0_5799_38426)">
<path d="M19.115 2.86504C19.2311 2.74863 19.3691 2.65627 19.5209 2.59326C19.6728 2.53024 19.8356 2.4978 20 2.4978C20.1644 2.4978 20.3272 2.53024 20.4791 2.59326C20.6309 2.65627 20.7689 2.74863 20.885 2.86504L24.635 6.61504C24.7512 6.73126 24.8434 6.86923 24.9063 7.02108C24.9692 7.17293 25.0016 7.33568 25.0016 7.50004C25.0016 7.6644 24.9692 7.82715 24.9063 7.979C24.8434 8.13084 24.7512 8.26882 24.635 8.38504C24.5188 8.50126 24.3808 8.59345 24.229 8.65635C24.0771 8.71924 23.9144 8.75162 23.75 8.75162C23.5856 8.75162 23.4229 8.71924 23.271 8.65635C23.1192 8.59345 22.9812 8.50126 22.865 8.38504L21.25 6.76754V11.25C21.25 11.5816 21.1183 11.8995 20.8839 12.1339C20.6495 12.3683 20.3315 12.5 20 12.5C19.6685 12.5 19.3505 12.3683 19.1161 12.1339C18.8817 11.8995 18.75 11.5816 18.75 11.25V6.76754L17.135 8.38504C17.0188 8.50126 16.8808 8.59345 16.729 8.65635C16.5771 8.71924 16.4144 8.75162 16.25 8.75162C16.0856 8.75162 15.9229 8.71924 15.771 8.65635C15.6192 8.59345 15.4812 8.50126 15.365 8.38504C15.2488 8.26882 15.1566 8.13084 15.0937 7.979C15.0308 7.82715 14.9984 7.6644 14.9984 7.50004C14.9984 7.33568 15.0308 7.17293 15.0937 7.02108C15.1566 6.86923 15.2488 6.73126 15.365 6.61504L19.115 2.86504ZM5.8575 10.8575C6.09191 10.6232 6.40979 10.4916 6.74125 10.4916C7.07271 10.4916 7.39059 10.6232 7.625 10.8575L11.16 14.3925C11.3877 14.6283 11.5137 14.944 11.5108 15.2718C11.508 15.5995 11.3765 15.913 11.1448 16.1448C10.913 16.3766 10.5995 16.508 10.2718 16.5109C9.94401 16.5137 9.62825 16.3877 9.3925 16.16L5.8575 12.625C5.62316 12.3906 5.49152 12.0727 5.49152 11.7413C5.49152 11.4098 5.62316 11.0919 5.8575 10.8575ZM34.1425 10.8575C34.3768 11.0919 34.5085 11.4098 34.5085 11.7413C34.5085 12.0727 34.3768 12.3906 34.1425 12.625L30.6075 16.16C30.4922 16.2794 30.3543 16.3747 30.2018 16.4402C30.0492 16.5057 29.8852 16.5402 29.7193 16.5416C29.5533 16.543 29.3887 16.5114 29.2351 16.4486C29.0814 16.3857 28.9419 16.2929 28.8245 16.1755C28.7071 16.0582 28.6143 15.9186 28.5515 15.765C28.4886 15.6114 28.457 15.4468 28.4584 15.2808C28.4599 15.1148 28.4944 14.9508 28.5599 14.7983C28.6254 14.6458 28.7206 14.5078 28.84 14.3925L32.375 10.8575C32.6094 10.6232 32.9273 10.4916 33.2588 10.4916C33.5902 10.4916 33.9081 10.6232 34.1425 10.8575ZM29.2725 28.75C29.8855 27.2321 30.1164 25.587 29.9451 23.959C29.7738 22.331 29.2054 20.77 28.2899 19.4129C27.3744 18.0559 26.1397 16.9444 24.6943 16.1759C23.2489 15.4075 21.637 15.0056 20 15.0056C18.363 15.0056 16.7511 15.4075 15.3057 16.1759C13.8603 16.9444 12.6256 18.0559 11.7101 19.4129C10.7946 20.77 10.2262 22.331 10.0549 23.959C9.88359 25.587 10.1145 27.2321 10.7275 28.75H1.25C0.918479 28.75 0.600537 28.8817 0.366117 29.1162C0.131696 29.3506 0 29.6685 0 30C0 30.3316 0.131696 30.6495 0.366117 30.8839C0.600537 31.1183 0.918479 31.25 1.25 31.25H38.75C39.0815 31.25 39.3995 31.1183 39.6339 30.8839C39.8683 30.6495 40 30.3316 40 30C40 29.6685 39.8683 29.3506 39.6339 29.1162C39.3995 28.8817 39.0815 28.75 38.75 28.75H29.275H29.2725ZM0 25C0 24.6685 0.131696 24.3506 0.366117 24.1162C0.600537 23.8817 0.918479 23.75 1.25 23.75H6.25C6.58152 23.75 6.89946 23.8817 7.13388 24.1162C7.3683 24.3506 7.5 24.6685 7.5 25C7.5 25.3316 7.3683 25.6495 7.13388 25.8839C6.89946 26.1183 6.58152 26.25 6.25 26.25H1.25C0.918479 26.25 0.600537 26.1183 0.366117 25.8839C0.131696 25.6495 0 25.3316 0 25ZM32.5 25C32.5 24.6685 32.6317 24.3506 32.8661 24.1162C33.1005 23.8817 33.4185 23.75 33.75 23.75H38.75C39.0815 23.75 39.3995 23.8817 39.6339 24.1162C39.8683 24.3506 40 24.6685 40 25C40 25.3316 39.8683 25.6495 39.6339 25.8839C39.3995 26.1183 39.0815 26.25 38.75 26.25H33.75C33.4185 26.25 33.1005 26.1183 32.8661 25.8839C32.6317 25.6495 32.5 25.3316 32.5 25Z" fill="url(#paint0_linear_5799_38426)"/>
</g>
<defs>
<linearGradient id="paint0_linear_5799_38426" x1="20" y1="2.4978" x2="20" y2="31.25" gradientUnits="userSpaceOnUse">
<stop stop-color="#F8B91A"/>
<stop offset="1" stop-color="#F8B91A" stop-opacity="0.25"/>
</linearGradient>
<clipPath id="clip0_5799_38426">
<rect width="40" height="40" fill="white"/>
</clipPath>
</defs>
</svg>
