<svg width="120" height="120" viewBox="0 0 120 120" fill="none" xmlns="http://www.w3.org/2000/svg">
<path d="M85 110H35C32.3478 110 29.8043 108.946 27.9289 107.071C26.0536 105.196 25 102.652 25 100V35H15V25H35V20C35 17.3478 36.0536 14.8043 37.9289 12.9289C39.8043 11.0536 42.3478 10 45 10H75C77.6522 10 80.1957 11.0536 82.0711 12.9289C83.9464 14.8043 85 17.3478 85 20V25H105V35H95V100C95 102.652 93.9464 105.196 92.0711 107.071C90.1957 108.946 87.6522 110 85 110ZM35 35V100H85V35H35ZM45 20V25H75V20H45Z" fill="#4D5E6F" fill-opacity="0.75"/>
</svg>
