<svg width="67" height="64" viewBox="0 0 67 64" fill="none" xmlns="http://www.w3.org/2000/svg">
<g filter="url(#filter0_di_5799_38470)">
<path d="M39.3227 41.8391C39.3227 41.0401 39.9704 40.3924 40.7694 40.3924H41.8544V41.4774C41.8544 42.2764 41.2067 42.924 40.4077 42.924C39.8085 42.924 39.3227 42.4383 39.3227 41.8391Z" fill="#379ADC"/>
<path d="M34.2595 47.915C34.2595 47.116 34.9071 46.4684 35.7061 46.4684H36.7911V47.5533C36.7911 48.3523 36.1434 49 35.3444 49C34.7452 49 34.2595 48.5142 34.2595 47.915Z" fill="#379ADC"/>
<path d="M29.7025 41.8391C29.7025 41.0401 30.3502 40.3924 31.1491 40.3924H32.2341V41.4774C32.2341 42.2764 31.5865 42.924 30.7875 42.924C30.1883 42.924 29.7025 42.4383 29.7025 41.8391Z" fill="#379ADC"/>
<path d="M24.6392 47.915C24.6392 47.116 25.2869 46.4684 26.0859 46.4684H27.1708V47.5533C27.1708 48.3523 26.5232 49 25.7242 49C25.125 49 24.6392 48.5142 24.6392 47.915Z" fill="#379ADC"/>
<path d="M20.0822 41.8391C20.0822 41.0401 20.7299 40.3924 21.5289 40.3924H22.6139V41.4774C22.6139 42.2764 21.9662 42.924 21.1672 42.924C20.568 42.924 20.0822 42.4383 20.0822 41.8391Z" fill="#379ADC"/>
<path d="M38.3101 19.6329C38.3101 25.5053 33.5496 30.2658 27.6772 30.2658C21.8048 30.2658 17.0443 25.5053 17.0443 19.6329C17.0443 13.7605 21.8048 9 27.6772 9C33.5496 9 38.3101 13.7605 38.3101 19.6329Z" fill="#FBCA1C"/>
<path d="M38.3101 19.6329C38.3101 25.5053 33.5496 30.2658 27.6772 30.2658C21.8048 30.2658 17.0443 25.5053 17.0443 19.6329C17.0443 13.7605 21.8048 9 27.6772 9C33.5496 9 38.3101 13.7605 38.3101 19.6329Z" fill="url(#paint0_radial_5799_38470)" fill-opacity="0.2"/>
<path d="M48.422 26.2152C48.4317 26.0477 48.4367 25.8788 48.4367 25.7089C48.4367 20.955 44.5829 17.1013 39.8291 17.1013C37.5415 17.1013 35.4624 17.9936 33.9208 19.4492C33.141 19.2388 32.3209 19.1266 31.4746 19.1266C28.4137 19.1266 25.6957 20.5948 23.9863 22.8654C23.4653 22.7383 22.9209 22.6709 22.3607 22.6709C18.5856 22.6709 15.5253 25.7312 15.5253 29.5063C15.5253 29.5239 15.5253 29.5415 15.5255 29.5591C15.5253 29.5715 15.5253 29.5838 15.5253 29.5962C15.5253 34.1606 19.2255 37.8608 23.7899 37.8608H36.7911C43.2228 37.8608 48.4367 32.6469 48.4367 26.2152H48.422Z" fill="white"/>
<path d="M48.422 26.2152C48.4317 26.0477 48.4367 25.8788 48.4367 25.7089C48.4367 20.955 44.5829 17.1013 39.8291 17.1013C37.5415 17.1013 35.4624 17.9936 33.9208 19.4492C33.141 19.2388 32.3209 19.1266 31.4746 19.1266C28.4137 19.1266 25.6957 20.5948 23.9863 22.8654C23.4653 22.7383 22.9209 22.6709 22.3607 22.6709C18.5856 22.6709 15.5253 25.7312 15.5253 29.5063C15.5253 29.5239 15.5253 29.5415 15.5255 29.5591C15.5253 29.5715 15.5253 29.5838 15.5253 29.5962C15.5253 34.1606 19.2255 37.8608 23.7899 37.8608H36.7911C43.2228 37.8608 48.4367 32.6469 48.4367 26.2152H48.422Z" fill="url(#paint1_radial_5799_38470)" fill-opacity="0.2"/>
<path d="M39.8291 28.4937C39.8291 24.4389 43.1161 21.1519 47.1708 21.1519H48.4367C51.7923 21.1519 54.5126 23.8722 54.5126 27.2278C54.5126 30.5835 51.7923 33.3038 48.4367 33.3038H43.8797C41.6426 33.3038 39.8291 31.4903 39.8291 29.2532V28.4937Z" fill="white"/>
<path d="M39.8291 28.4937C39.8291 24.4389 43.1161 21.1519 47.1708 21.1519H48.4367C51.7923 21.1519 54.5126 23.8722 54.5126 27.2278C54.5126 30.5835 51.7923 33.3038 48.4367 33.3038H43.8797C41.6426 33.3038 39.8291 31.4903 39.8291 29.2532V28.4937Z" fill="url(#paint2_radial_5799_38470)" fill-opacity="0.2"/>
<path d="M22.6139 33.3038C22.6139 30.5074 20.347 28.2405 17.5506 28.2405H16.7911C14.4142 28.2405 12.4873 30.1674 12.4873 32.5443C12.4873 34.9212 14.4142 36.8481 16.7911 36.8481H19.7447C21.3293 36.8481 22.6139 35.5635 22.6139 33.9789V33.3038Z" fill="white"/>
<path d="M22.6139 33.3038C22.6139 30.5074 20.347 28.2405 17.5506 28.2405H16.7911C14.4142 28.2405 12.4873 30.1674 12.4873 32.5443C12.4873 34.9212 14.4142 36.8481 16.7911 36.8481H19.7447C21.3293 36.8481 22.6139 35.5635 22.6139 33.9789V33.3038Z" fill="url(#paint3_radial_5799_38470)" fill-opacity="0.2"/>
</g>
<defs>
<filter id="filter0_di_5799_38470" x="0.487305" y="0" width="66.0254" height="64" filterUnits="userSpaceOnUse" color-interpolation-filters="sRGB">
<feFlood flood-opacity="0" result="BackgroundImageFix"/>
<feColorMatrix in="SourceAlpha" type="matrix" values="0 0 0 0 0 0 0 0 0 0 0 0 0 0 0 0 0 0 127 0" result="hardAlpha"/>
<feOffset dy="3"/>
<feGaussianBlur stdDeviation="6"/>
<feComposite in2="hardAlpha" operator="out"/>
<feColorMatrix type="matrix" values="0 0 0 0 0.301961 0 0 0 0 0.368627 0 0 0 0 0.435294 0 0 0 0.14 0"/>
<feBlend mode="normal" in2="BackgroundImageFix" result="effect1_dropShadow_5799_38470"/>
<feBlend mode="normal" in="SourceGraphic" in2="effect1_dropShadow_5799_38470" result="shape"/>
<feColorMatrix in="SourceAlpha" type="matrix" values="0 0 0 0 0 0 0 0 0 0 0 0 0 0 0 0 0 0 127 0" result="hardAlpha"/>
<feOffset/>
<feGaussianBlur stdDeviation="2"/>
<feComposite in2="hardAlpha" operator="arithmetic" k2="-1" k3="1"/>
<feColorMatrix type="matrix" values="0 0 0 0 0.301961 0 0 0 0 0.368627 0 0 0 0 0.435294 0 0 0 0.11 0"/>
<feBlend mode="normal" in2="shape" result="effect2_innerShadow_5799_38470"/>
</filter>
<radialGradient id="paint0_radial_5799_38470" cx="0" cy="0" r="1" gradientUnits="userSpaceOnUse" gradientTransform="translate(28.497 21.381) rotate(49.3174) scale(27.6296 19.4686)">
<stop stop-color="#FBCA1C"/>
<stop offset="1" stop-color="#E4750E"/>
</radialGradient>
<radialGradient id="paint1_radial_5799_38470" cx="0" cy="0" r="1" gradientUnits="userSpaceOnUse" gradientTransform="translate(41.905 12.9024) rotate(112.359) scale(45.8891 57.1219)">
<stop stop-opacity="0"/>
<stop offset="1" stop-color="#4D5E6F"/>
</radialGradient>
<radialGradient id="paint2_radial_5799_38470" cx="0" cy="0" r="1" gradientUnits="userSpaceOnUse" gradientTransform="translate(7.41528 -7.66666) rotate(53.4385) scale(70.5495 46.2431)">
<stop stop-color="#4D5E6F" stop-opacity="0"/>
<stop offset="1" stop-color="#4D5E6F" stop-opacity="0.54"/>
</radialGradient>
<radialGradient id="paint3_radial_5799_38470" cx="0" cy="0" r="1" gradientUnits="userSpaceOnUse" gradientTransform="translate(17.5506 26.2152) rotate(90) scale(11.6456 13.7007)">
<stop stop-color="#4D5E6F" stop-opacity="0"/>
<stop offset="1" stop-color="#4D5E6F" stop-opacity="0.62"/>
</radialGradient>
</defs>
</svg>
