<svg width="189" height="32" viewBox="0 0 189 32" fill="none" xmlns="http://www.w3.org/2000/svg">
<path d="M6.39717 21C6.21349 21.0006 6.03174 20.9624 5.86384 20.888C4.91365 20.4719 4.10525 19.7881 3.53743 18.92C2.96961 18.0519 2.66697 17.0372 2.6665 16C2.66788 14.8176 3.06144 13.6691 3.78553 12.7343C4.50962 11.7996 5.52333 11.1315 6.66784 10.8346L6.6665 10.6666C6.6665 6.25463 10.2545 2.66663 14.6665 2.66663C16.5559 2.66418 18.3847 3.33344 19.8262 4.55489C21.2677 5.77634 22.2281 7.47044 22.5358 9.33463C22.5945 9.6833 22.5123 10.041 22.3072 10.329C22.1022 10.6171 21.7912 10.8119 21.4425 10.8706C21.0942 10.9268 20.7378 10.8435 20.4503 10.6389C20.1629 10.4343 19.9675 10.1248 19.9065 9.7773C19.7019 8.5355 19.0626 7.40683 18.1028 6.5928C17.143 5.77877 15.925 5.33237 14.6665 5.3333C13.8743 5.33382 13.0922 5.51063 12.3768 5.85091C11.6614 6.19119 11.0307 6.6864 10.5305 7.30065C10.0302 7.9149 9.67294 8.63277 9.48453 9.40222C9.29612 10.1717 9.28131 10.9734 9.44117 11.7493L9.7865 13.4426L7.8785 13.3253C6.52917 13.3333 5.33317 14.5293 5.33317 16C5.33317 17.06 5.96117 18.02 6.93317 18.4453C7.21371 18.5682 7.4434 18.7839 7.58363 19.0561C7.72386 19.3284 7.76608 19.6407 7.70319 19.9404C7.6403 20.2402 7.47614 20.5091 7.2383 20.7021C7.00046 20.895 6.70344 21.0002 6.39717 21V21ZM25.3332 9.3333C24.9795 9.3333 24.6404 9.47377 24.3904 9.72382C24.1403 9.97387 23.9998 10.313 23.9998 10.6666C23.9998 11.0203 24.1403 11.3594 24.3904 11.6094C24.6404 11.8595 24.9795 12 25.3332 12C25.6868 12 26.0259 12.1404 26.276 12.3905C26.526 12.6405 26.6665 12.9797 26.6665 13.3333C26.6665 13.6869 26.526 14.0261 26.276 14.2761C26.0259 14.5262 25.6868 14.6666 25.3332 14.6666H12.5332C12.1795 14.6666 11.8404 14.8071 11.5904 15.0572C11.3403 15.3072 11.1998 15.6463 11.1998 16C11.1998 16.3536 11.3403 16.6927 11.5904 16.9428C11.8404 17.1928 12.1795 17.3333 12.5332 17.3333H18.6665C19.0201 17.3333 19.3593 17.4738 19.6093 17.7238C19.8594 17.9739 19.9998 18.313 19.9998 18.6666C19.9998 19.0203 19.8594 19.3594 19.6093 19.6094C19.3593 19.8595 19.0201 20 18.6665 20H11.9998C9.7945 20 7.99984 21.7946 7.99984 24C7.99984 26.2053 9.7945 28 11.9998 28C12.3535 28 12.6926 27.8595 12.9426 27.6094C13.1927 27.3594 13.3332 27.0203 13.3332 26.6666C13.3332 26.313 13.1927 25.9739 12.9426 25.7238C12.6926 25.4738 12.3535 25.3333 11.9998 25.3333C11.6462 25.3333 11.3071 25.1928 11.057 24.9428C10.807 24.6927 10.6665 24.3536 10.6665 24C10.6665 23.6463 10.807 23.3072 11.057 23.0572C11.3071 22.8071 11.6462 22.6666 11.9998 22.6666H18.6665C20.8718 22.6666 22.6665 20.872 22.6665 18.6666C22.6665 18.196 22.5705 17.752 22.4198 17.3333H25.3332C27.5385 17.3333 29.3332 15.5386 29.3332 13.3333C29.3332 11.128 27.5385 9.3333 25.3332 9.3333Z" fill="#EF6820"/>
<path d="M39.374 21V11.256H41.572V21H39.374ZM36.28 13.034V11.116H44.666V13.034H36.28ZM48.6934 16.926V15.302H50.7794C51.2181 15.302 51.5541 15.19 51.7874 14.966C52.0301 14.742 52.1514 14.4387 52.1514 14.056C52.1514 13.7013 52.0347 13.4073 51.8014 13.174C51.5681 12.9407 51.2321 12.824 50.7934 12.824H48.6934V11.116H51.0454C51.6987 11.116 52.2727 11.242 52.7674 11.494C53.2621 11.7367 53.6494 12.0773 53.9294 12.516C54.2094 12.9547 54.3494 13.4587 54.3494 14.028C54.3494 14.6067 54.2094 15.1153 53.9294 15.554C53.6494 15.9833 53.2574 16.3193 52.7534 16.562C52.2494 16.8047 51.6567 16.926 50.9754 16.926H48.6934ZM47.0134 21V11.116H49.2114V21H47.0134ZM52.3894 21L49.3094 16.744L51.3254 16.198L54.9934 21H52.3894ZM61.7381 21.168C60.9915 21.168 60.3008 21.0373 59.6661 20.776C59.0408 20.5147 58.4901 20.1507 58.0141 19.684C57.5381 19.2173 57.1695 18.676 56.9081 18.06C56.6468 17.4347 56.5161 16.7627 56.5161 16.044C56.5161 15.316 56.6468 14.644 56.9081 14.028C57.1695 13.412 57.5335 12.8753 58.0001 12.418C58.4668 11.9513 59.0128 11.592 59.6381 11.34C60.2728 11.0787 60.9635 10.948 61.7101 10.948C62.4475 10.948 63.1288 11.0787 63.7541 11.34C64.3888 11.592 64.9395 11.9513 65.4061 12.418C65.8821 12.8753 66.2508 13.4167 66.5121 14.042C66.7735 14.658 66.9041 15.33 66.9041 16.058C66.9041 16.7767 66.7735 17.4487 66.5121 18.074C66.2508 18.69 65.8868 19.2313 65.4201 19.698C64.9535 20.1553 64.4028 20.5147 63.7681 20.776C63.1428 21.0373 62.4661 21.168 61.7381 21.168ZM61.7101 19.166C62.2981 19.166 62.8115 19.0353 63.2501 18.774C63.6981 18.5127 64.0435 18.1487 64.2861 17.682C64.5288 17.206 64.6501 16.66 64.6501 16.044C64.6501 15.5773 64.5801 15.1573 64.4401 14.784C64.3001 14.4013 64.0995 14.0747 63.8381 13.804C63.5768 13.524 63.2641 13.314 62.9001 13.174C62.5455 13.0247 62.1488 12.95 61.7101 12.95C61.1221 12.95 60.6041 13.0807 60.1561 13.342C59.7175 13.594 59.3768 13.9533 59.1341 14.42C58.8915 14.8773 58.7701 15.4187 58.7701 16.044C58.7701 16.5107 58.8401 16.9353 58.9801 17.318C59.1201 17.7007 59.3161 18.032 59.5681 18.312C59.8295 18.5827 60.1421 18.7927 60.5061 18.942C60.8701 19.0913 61.2715 19.166 61.7101 19.166ZM71.0994 17.402V15.694H73.2274C73.4981 15.694 73.7454 15.638 73.9694 15.526C74.1934 15.414 74.3708 15.2507 74.5014 15.036C74.6321 14.8213 74.6974 14.56 74.6974 14.252C74.6974 13.9533 74.6321 13.6967 74.5014 13.482C74.3708 13.2673 74.1934 13.104 73.9694 12.992C73.7454 12.88 73.4981 12.824 73.2274 12.824H71.0994V11.116H73.5494C74.1748 11.116 74.7394 11.242 75.2434 11.494C75.7474 11.746 76.1441 12.11 76.4334 12.586C76.7321 13.0527 76.8814 13.608 76.8814 14.252C76.8814 14.896 76.7321 15.456 76.4334 15.932C76.1441 16.3987 75.7474 16.7627 75.2434 17.024C74.7394 17.276 74.1748 17.402 73.5494 17.402H71.0994ZM69.4194 21V11.116H71.6174V21H69.4194ZM79.2347 21V11.116H81.4327V21H79.2347ZM89.1463 21.154C88.409 21.154 87.723 21.028 87.0883 20.776C86.463 20.5147 85.9123 20.1507 85.4363 19.684C84.9696 19.2173 84.6056 18.676 84.3443 18.06C84.083 17.4347 83.9523 16.7627 83.9523 16.044C83.9523 15.3253 84.083 14.658 84.3443 14.042C84.6056 13.4167 84.9696 12.8753 85.4363 12.418C85.903 11.9607 86.449 11.606 87.0743 11.354C87.709 11.0927 88.395 10.962 89.1323 10.962C89.9163 10.962 90.6116 11.088 91.2183 11.34C91.8343 11.592 92.371 11.9373 92.8283 12.376L91.3583 13.86C91.097 13.58 90.7796 13.3607 90.4063 13.202C90.0423 13.0433 89.6176 12.964 89.1323 12.964C88.703 12.964 88.3063 13.0387 87.9423 13.188C87.5876 13.328 87.2796 13.5333 87.0183 13.804C86.7663 14.0747 86.5656 14.4013 86.4163 14.784C86.2763 15.1667 86.2063 15.5867 86.2063 16.044C86.2063 16.5107 86.2763 16.9353 86.4163 17.318C86.5656 17.7007 86.7663 18.0273 87.0183 18.298C87.2796 18.5687 87.5876 18.7787 87.9423 18.928C88.3063 19.0773 88.703 19.152 89.1323 19.152C89.6363 19.152 90.075 19.0727 90.4483 18.914C90.8216 18.7553 91.1436 18.536 91.4143 18.256L92.8983 19.74C92.4223 20.1787 91.8763 20.524 91.2603 20.776C90.6536 21.028 89.949 21.154 89.1463 21.154ZM94.2405 21L98.1605 11.116H100.149L104.027 21H101.703L98.7345 12.796H99.5325L96.5225 21H94.2405ZM96.4665 19.208V17.416H101.857V19.208H96.4665ZM106.192 21V11.116H108.39V21H106.192ZM107.886 21V19.068H112.772V21H107.886ZM116.804 21L113.626 11.116H115.81L118.134 18.718H117.28L119.548 11.116H121.27L123.538 18.718H122.698L125.008 11.116H127.178L124 21H122.278L119.996 13.398H120.808L118.526 21H116.804ZM129.487 21V11.116H131.685V21H129.487ZM131.167 21V19.096H136.585V21H131.167ZM131.167 16.87V15.036H136.095V16.87H131.167ZM131.167 13.006V11.116H136.515V13.006H131.167ZM138.478 21L142.398 11.116H144.386L148.264 21H145.94L142.972 12.796H143.77L140.76 21H138.478ZM140.704 19.208V17.416H146.094V19.208H140.704ZM151.745 21V11.256H153.943V21H151.745ZM148.651 13.034V11.116H157.037V13.034H148.651ZM159.384 21V11.116H161.582V21H159.384ZM165.502 21V11.116H167.714V21H165.502ZM160.7 16.87V14.966H166.23V16.87H160.7ZM170.731 21V11.116H172.929V21H170.731ZM172.411 21V19.096H177.829V21H172.411ZM172.411 16.87V15.036H177.339V16.87H172.411ZM172.411 13.006V11.116H177.759V13.006H172.411ZM182.144 16.926V15.302H184.23C184.669 15.302 185.005 15.19 185.238 14.966C185.481 14.742 185.602 14.4387 185.602 14.056C185.602 13.7013 185.485 13.4073 185.252 13.174C185.019 12.9407 184.683 12.824 184.244 12.824H182.144V11.116H184.496C185.149 11.116 185.723 11.242 186.218 11.494C186.713 11.7367 187.1 12.0773 187.38 12.516C187.66 12.9547 187.8 13.4587 187.8 14.028C187.8 14.6067 187.66 15.1153 187.38 15.554C187.1 15.9833 186.708 16.3193 186.204 16.562C185.7 16.8047 185.107 16.926 184.426 16.926H182.144ZM180.464 21V11.116H182.662V21H180.464ZM185.84 21L182.76 16.744L184.776 16.198L188.444 21H185.84Z" fill="#EF6820"/>
</svg>
